<?xml version="1.0" encoding="UTF-8"?>
<svg version="1.1" xmlns="http://www.w3.org/2000/svg" width="1536" height="1024">
<path d="M0 0 C1.0329666 -0.00384115 2.0659332 -0.00768229 3.13020182 -0.01163983 C4.84578736 -0.01034011 4.84578736 -0.01034011 6.59603119 -0.00901413 C7.80446104 -0.01198525 9.01289088 -0.01495637 10.25793982 -0.01801753 C13.62371294 -0.02521424 16.98943504 -0.02787816 20.35521221 -0.028615 C23.9821626 -0.03046278 27.60910186 -0.03800957 31.23604584 -0.04475021 C39.17956705 -0.05835549 47.12308322 -0.06436399 55.06661415 -0.06876087 C60.03550193 -0.07152423 65.00438777 -0.07576221 69.97327423 -0.08026505 C83.75014626 -0.09246933 97.52701673 -0.10276064 111.30389404 -0.10614014 C112.18656656 -0.1063597 113.06923907 -0.10657927 113.97865924 -0.10680549 C115.30577862 -0.10713291 115.30577862 -0.10713291 116.6597085 -0.10746694 C118.45240688 -0.10791039 120.24510527 -0.10835696 122.03780365 -0.10880661 C122.92703701 -0.10902804 123.81627036 -0.10924947 124.73245019 -0.10947761 C139.08340379 -0.11341033 153.43430613 -0.13081218 167.78523999 -0.15416613 C182.54565285 -0.17799038 197.30604016 -0.19034729 212.06647253 -0.19150805 C220.34257383 -0.19241957 228.61860866 -0.19803677 236.89469147 -0.21632767 C243.95656772 -0.23187995 251.01835706 -0.23676215 258.08024722 -0.22858956 C261.67232028 -0.22473331 265.26421923 -0.22535899 268.85626984 -0.23964691 C307.68143104 -0.38486901 345.66731996 4.24260848 380.14131927 23.13142776 C381.22026459 23.71924026 382.2992099 24.30705276 383.41085052 24.91267776 C412.7673968 41.49403894 435.83580117 67.59324398 445.14522552 100.33455276 C452.99247595 130.24642496 449.94328403 163.42060334 434.28731537 190.23787308 C422.79233526 209.2312829 406.72513754 223.76019933 387.14131927 234.13142776 C387.6592807 234.39769974 388.17724213 234.66397171 388.71089935 234.93831253 C403.7501423 242.69409568 416.92423297 250.37138354 429.14131927 262.13142776 C429.80003021 262.71537308 430.45874115 263.29931839 431.13741302 263.90095901 C449.59163792 280.73564454 456.02214196 308.19195195 457.14131927 332.13142776 C458.70505267 376.87577168 449.22677251 418.50825315 418.24263763 451.8882637 C382.35220057 489.72604845 330.63915767 502.6924217 280.12670517 504.22275925 C272.30697685 504.41901215 264.48613369 504.54413737 256.66480231 504.65639353 C254.559218 504.68667811 252.45365225 504.71808407 250.3480854 504.7495575 C212.41549352 505.30804571 174.48051303 505.28361294 136.54467404 505.25999713 C129.73175066 505.256199 122.91884176 505.25761907 116.10591888 505.26179886 C91.11744473 505.27651715 66.12952847 505.25558887 41.14131927 505.13142776 C40.10023435 505.12650975 40.10023435 505.12650975 39.03811741 505.12149239 C31.52586142 505.08548489 24.01463845 505.02920751 16.50314522 504.91435242 C14.64582278 504.88773237 12.78840008 504.86721846 10.93093681 504.85359955 C8.49353121 504.83364515 6.0579387 504.78920062 3.6210556 504.73640823 C1.67577721 504.70618073 1.67577721 504.70618073 -0.30879974 504.67534256 C-4.73799791 503.99669828 -7.15648785 502.62807852 -10.85868073 500.13142776 C-12.32549561 497.197798 -12.00352774 494.2432738 -12.00013924 491.02727318 C-12.00328105 490.2834447 -12.00642287 489.53961622 -12.00965989 488.77324748 C-12.0190619 486.25453982 -12.02130086 483.73587509 -12.02362823 481.21715164 C-12.02890634 479.40299697 -12.03461853 477.58884352 -12.04072988 475.77469146 C-12.05630946 470.76765774 -12.06562368 465.76062852 -12.07394838 460.75357819 C-12.08398361 455.35939227 -12.09972382 449.96522267 -12.11473846 444.57104874 C-12.14326374 433.98334471 -12.16635356 423.39563538 -12.18751623 412.80791433 C-12.20484767 404.18180882 -12.22408261 395.55570952 -12.2446785 386.92961121 C-12.24907139 385.08819368 -12.24907139 385.08819368 -12.25355303 383.20957579 C-12.25951047 380.71521203 -12.26547168 378.22084827 -12.27143662 375.72648452 C-12.32566011 352.95528326 -12.37417186 330.18407252 -12.42036675 307.41285377 C-12.46239323 286.7151897 -12.50981998 266.01754619 -12.56180573 245.31990433 C-12.6203031 222.02918205 -12.67511976 198.73845554 -12.7244066 175.44771183 C-12.72970393 172.94964336 -12.73500654 170.45157491 -12.74031448 167.95350647 C-12.74292432 166.72473049 -12.74553415 165.49595451 -12.74822307 164.2299429 C-12.76668581 155.65495529 -12.78770411 147.07997624 -12.80978012 138.50499725 C-12.8367801 127.99285974 -12.85972855 117.48072197 -12.87786509 106.9685653 C-12.88718207 101.6244861 -12.89808238 96.28042537 -12.91396904 90.93636131 C-12.9495697 78.62615106 -12.94450115 66.31700785 -12.87367779 54.00692874 C-12.85797999 50.99707103 -12.84832826 47.98722516 -12.83877897 44.97734213 C-12.8190294 39.84274763 -12.77053701 34.7090789 -12.70242791 29.57490669 C-12.68027233 27.63396886 -12.66637106 25.69291682 -12.66128476 23.7518592 C-12.65235072 21.07546053 -12.61229191 18.40124426 -12.56439018 15.72529793 C-12.56843663 14.9400265 -12.57248308 14.15475508 -12.57665215 13.34568755 C-12.42514344 7.64858169 -10.93736445 5.12238685 -6.85868073 1.13142776 C-4.3880869 -0.10386915 -2.76421771 0.00384349 0 0 Z M264.14131927 108.13142776 C264.11819773 120.50061491 264.10040515 132.86979696 264.0895071 145.23900127 C264.08427786 150.98187839 264.07717947 156.72474077 264.06587982 162.46760941 C264.0550524 168.00482771 264.04904275 173.5420318 264.04644203 179.07925987 C264.04458752 181.19687054 264.04096641 183.31448039 264.03558922 185.43208504 C264.02838072 188.38714051 264.02732825 191.34213647 264.02779388 194.29719925 C264.02419861 195.18192413 264.02060333 196.06664902 264.01689911 196.97818375 C263.63684012 200.866743 263.63684012 200.866743 265.14131927 204.13142776 C277.50101353 205.1258686 290.26419463 204.84776945 302.14131927 201.13142776 C303.16096771 200.82591995 304.18061615 200.52041214 305.23116302 200.20564651 C315.88100791 196.4363964 324.44164819 189.06995219 329.76631927 179.13142776 C335.56276529 165.86779541 335.89529753 150.05002406 332.14131927 136.13142776 C327.77458079 125.09885527 321.15995275 118.06648831 310.44039154 113.10310745 C300.505827 108.90436402 290.56072908 108.60330086 279.95381927 108.44392776 C278.41407813 108.41067727 276.87436336 108.37618078 275.33467865 108.34041214 C271.60375277 108.25640664 267.87275471 108.18918795 264.14131927 108.13142776 Z M95.14131927 108.13142776 C95.14131927 203.83142776 95.14131927 299.53142776 95.14131927 398.13142776 C113.62131927 398.13142776 132.10131927 398.13142776 151.14131927 398.13142776 C151.14131927 358.20142776 151.14131927 318.27142776 151.14131927 277.13142776 C170.77631927 277.23455276 190.41131927 277.33767776 210.64131927 277.44392776 C216.83333099 277.46882278 223.02534271 277.4937178 229.40499115 277.51936722 C236.98604584 277.56929398 236.98604584 277.56929398 240.53890228 277.59643936 C243.01185471 277.61255307 245.48484919 277.62286563 247.9578476 277.62854385 C251.71128967 277.63830153 255.46418509 277.6666624 259.21749115 277.69905472 C260.31290977 277.69762876 261.4083284 277.69620279 262.53694153 277.69473362 C270.5598966 277.79341751 276.73620156 278.95806346 283.14131927 284.13142776 C283.80131927 284.13142776 284.46131927 284.13142776 285.14131927 284.13142776 C285.80798594 285.79809443 286.47465261 287.4647611 287.14131927 289.13142776 C287.48175766 289.90122467 287.82219604 290.67102158 288.17295074 291.46414566 C292.15114914 302.42172747 290.27049531 316.79654393 290.23897552 328.30720901 C290.23710664 330.32887105 290.23568496 332.35053354 290.23468781 334.3721962 C290.23089965 339.65088055 290.22110167 344.92953667 290.20998383 350.20820999 C290.19787424 356.56442303 290.19334982 362.9206456 290.18753052 369.27686691 C290.17788737 378.8950734 290.15870507 388.51321814 290.14131927 398.13142776 C307.96131927 398.13142776 325.78131927 398.13142776 344.14131927 398.13142776 C344.22872328 380.03769162 344.22872328 380.03769162 344.28780365 361.94392776 C344.3056666 354.5532362 344.32669075 347.1626572 344.36763763 339.77205276 C344.40047674 333.80682016 344.41822362 327.84170846 344.425951 321.87639236 C344.43145075 319.61207046 344.44218903 317.34775441 344.45850945 315.08348465 C344.60719327 293.58026244 342.3244464 275.97618666 331.14131927 257.13142776 C330.48131927 257.13142776 329.82131927 257.13142776 329.14131927 257.13142776 C328.91444427 256.59517776 328.68756927 256.05892776 328.45381927 255.50642776 C319.69480217 239.65677776 300.95346275 231.42191932 284.58663177 226.20955276 C269.77570139 222.35872807 254.79754029 222.87001542 239.61788177 222.93611526 C237.34859567 222.93906147 235.07930819 222.94109835 232.81002045 222.94221878 C224.46209912 222.95263925 216.11420703 222.98056165 207.76631927 223.00642776 C189.08006927 223.04767776 170.39381927 223.08892776 151.14131927 223.13142776 C151.14131927 185.18142776 151.14131927 147.23142776 151.14131927 108.13142776 C133.32131927 108.46142776 115.50131927 108.79142776 97.14131927 109.13142776 C96.48131927 108.80142776 95.82131927 108.47142776 95.14131927 108.13142776 Z " fill="#7E73CF" transform="translate(509.85868072509766,260.8685722351074)"/>
<path d="M0 0 C19.47 0 38.94 0 59 0 C59 37.62 59 75.24 59 114 C93.02896308 113.92107187 93.02896308 113.92107187 127.05786133 113.81982422 C133.70056152 113.81079102 133.70056152 113.81079102 136.8289032 113.80911255 C138.97307673 113.8060794 141.11724727 113.79912631 143.26139832 113.78884888 C154.04749778 113.73981869 164.76343036 113.76568221 175.50268555 114.86767578 C176.23745778 114.94276808 176.97223001 115.01786037 177.72926807 115.0952282 C197.66408256 117.43454529 216.42781064 126.26289312 231 140 C230.67 140.66 230.34 141.32 230 142 C229.26136719 141.34773437 228.52273438 140.69546875 227.76171875 140.0234375 C208.84421287 123.6031053 186.29500566 116.8019533 161.44335938 116.88647461 C159.71719265 116.88629381 159.71719265 116.88629381 157.95615387 116.88610935 C154.2519992 116.88685237 150.54789561 116.89445269 146.84375 116.90234375 C144.54850285 116.90381506 142.25325537 116.90483461 139.95800781 116.90539551 C131.47200007 116.91062645 122.98599953 116.92458771 114.5 116.9375 C95.525 116.958125 76.55 116.97875 57 117 C57.33 78.72 57.66 40.44 58 1 C57.34 1.33 56.68 1.66 56 2 C38.51 2.33 21.02 2.66 3 3 C2.67 97.38 2.34 191.76 2 289 C4.55437612 290.27718806 6.41588781 290.15961465 9.27587891 290.20532227 C10.3768692 290.22526749 11.4778595 290.24521271 12.61221313 290.26576233 C13.80494843 290.28247482 14.99768372 290.29918732 16.2265625 290.31640625 C17.44451508 290.33718735 18.66246765 290.35796844 19.91732788 290.37937927 C23.8198262 290.44492584 27.7223935 290.50378355 31.625 290.5625 C34.26563222 290.60568035 36.90625739 290.64929448 39.546875 290.69335938 C46.03117643 290.80061244 52.51554694 290.90236929 59 291 C59 291.33 59 291.66 59 292 C39.53 292 20.06 292 0 292 C0 195.64 0 99.28 0 0 Z " fill="#585091" transform="translate(603,368)"/>
<path d="M0 0 C0.66 0.33 1.32 0.66 2 1 C-38.73644314 24.00226815 -82.12980762 27.08681041 -128.10546875 27.6171875 C-129.49952273 27.63550896 -130.89357267 27.65413999 -132.28761864 27.67306137 C-170.05505715 28.18160284 -207.82655266 28.15207043 -245.59665382 28.12857032 C-252.40957433 28.12476994 -259.22248039 28.12618687 -266.03540039 28.13037109 C-340.09484697 28.17442696 -340.09484697 28.17442696 -368.66796875 27.6171875 C-369.58165033 27.60204227 -370.49533192 27.58689705 -371.43670082 27.57129288 C-373.89593518 27.52814769 -376.35441588 27.47186246 -378.81323242 27.40966797 C-380.78207649 27.36373001 -380.78207649 27.36373001 -382.79069519 27.31686401 C-385.76251862 27.02344723 -387.50063913 26.57036637 -390 25 C-387.51328595 23.75664298 -385.87164973 23.87917546 -383.08888054 23.88533211 C-382.04423036 23.88519116 -380.99958017 23.8850502 -379.92327392 23.88490498 C-378.76651314 23.88986418 -377.60975237 23.89482338 -376.41793823 23.89993286 C-374.58480078 23.90182627 -374.58480078 23.90182627 -372.71463025 23.90375793 C-369.3107799 23.90822088 -365.90699293 23.9171708 -362.50316 23.92791152 C-358.83535953 23.93837097 -355.16755161 23.94302164 -351.4997406 23.94824219 C-345.13573289 23.95797021 -338.771739 23.97101939 -332.40774155 23.98596573 C-322.32791575 24.00934265 -312.24808893 24.0223433 -302.16824341 24.03366089 C-298.71709245 24.03766304 -295.26594158 24.04173176 -291.81479073 24.04582024 C-290.95208387 24.04683946 -290.089377 24.04785869 -289.20052751 24.04890881 C-279.37098717 24.06066122 -269.54145022 24.07453299 -259.71191406 24.08935547 C-258.81318424 24.0907079 -257.91445442 24.09206033 -256.98849036 24.09345375 C-242.47776526 24.11555575 -227.96706383 24.14541869 -213.45635746 24.17732288 C-198.5355009 24.20984557 -183.61465655 24.23062497 -168.69376862 24.24159515 C-159.50691598 24.24877871 -150.32017961 24.26534443 -141.13336964 24.29439591 C-134.81409411 24.31356619 -128.49486419 24.32147715 -122.17555992 24.32099093 C-118.54322012 24.32105324 -114.91106172 24.32573604 -111.27876472 24.34415817 C-90.28084781 24.44601149 -69.59938819 23.40209334 -49.0625 18.6875 C-47.64735107 18.36785278 -47.64735107 18.36785278 -46.20361328 18.04174805 C-32.21173381 14.76384717 -19.60750396 9.60789156 -6.77685547 3.16333008 C-5.92365723 2.73947021 -5.07045898 2.31561035 -4.19140625 1.87890625 C-3.04973999 1.29991577 -3.04973999 1.29991577 -1.88500977 0.70922852 C-1.26295654 0.47518311 -0.64090332 0.2411377 0 0 Z " fill="#554E8C" transform="translate(892,738)"/>
<path d="M0 0 C15.5078548 -0.07017993 31.01569767 -0.12303211 46.52367401 -0.15543652 C53.72482116 -0.1708845 60.92586944 -0.19193425 68.12695312 -0.22631836 C74.40574859 -0.25628431 80.68447243 -0.27559003 86.96333742 -0.28226548 C90.28587648 -0.28616564 93.60816374 -0.29687786 96.9306488 -0.31719017 C100.64594621 -0.33899857 104.36082065 -0.3419654 108.07617188 -0.34057617 C109.7161615 -0.35675491 109.7161615 -0.35675491 111.38928223 -0.3732605 C117.64437599 -0.34798758 122.29028201 0.40594147 128 3 C124.49738343 4.16753886 122.83981079 3.43698626 119.38058472 2.50127029 C114.81392675 1.53968722 110.18468204 1.69074923 105.53515625 1.68115234 C103.85091301 1.66608391 103.85091301 1.66608391 102.13264465 1.65071106 C98.44260137 1.61996241 94.75263037 1.60286685 91.0625 1.5859375 C88.49559918 1.56721919 85.92870447 1.54764528 83.36181641 1.5272522 C77.30952022 1.48122663 71.25722747 1.44379342 65.20484924 1.41057932 C58.30993729 1.37225789 51.41511816 1.32287426 44.52028465 1.27259517 C30.34692656 1.16948509 16.17350557 1.08015716 2 1 C2.33 1.66 2.66 2.32 3 3 C3.09160337 5.06292985 3.1175118 7.12888885 3.11352539 9.19384766 C3.11344986 10.49504547 3.11337433 11.79624329 3.11329651 13.13687134 C3.10818947 14.56260211 3.10297347 15.9883325 3.09765625 17.4140625 C3.09579147 18.86851961 3.09436785 20.32297734 3.09336853 21.7774353 C3.08954805 25.60792776 3.07972176 29.43838237 3.06866455 33.26885986 C3.05844035 37.17663053 3.05386874 41.08440731 3.04882812 44.9921875 C3.03809908 52.6614756 3.02102828 60.3307325 3 68 C2.67 68 2.34 68 2 68 C2.00523682 68.66193359 2.01047363 69.32386719 2.01586914 70.00585938 C2.12480509 86.03461292 1.82071235 101.99174364 1 118 C0.67 118 0.34 118 0 118 C-0.89534623 95.67349408 -1.11225993 73.35116389 -1.12338257 51.00927734 C-1.12498582 48.89371259 -1.12853643 46.77815905 -1.13256836 44.66259766 C-1.13967265 40.60577428 -1.13693092 36.54901535 -1.1328125 32.4921875 C-1.13479645 31.29923065 -1.1367804 30.1062738 -1.13882446 28.87716675 C-1.11304318 19.22620528 -0.60132208 9.62878224 0 0 Z " fill="#564E94" transform="translate(661,538)"/>
<path d="M0 0 C40.14594595 0 40.14594595 0 51.5625 5.875 C52.51253906 6.34679687 53.46257813 6.81859375 54.44140625 7.3046875 C57.29023174 9.19230622 59.01222638 11.24050251 61 14 C60.443125 13.71125 59.88625 13.4225 59.3125 13.125 C56.99356912 11.94831521 56.99356912 11.94831521 54.4375 11.0625 C52 10 52 10 49 7 C32.29488817 1.60990288 32.29488817 1.60990288 3 2 C3 33.02 3 64.04 3 96 C12.9 96 22.8 96 33 96 C23.18647182 100.90676409 10.36659712 99 0 99 C0 66.33 0 33.66 0 0 Z " fill="#514B89" transform="translate(772,368)"/>
<path d="M0 0 C0.99 0.495 0.99 0.495 2 1 C2 16.84 2 32.68 2 49 C4.55437612 50.27718806 6.41588781 50.15961465 9.27587891 50.20532227 C10.3768692 50.22526749 11.4778595 50.24521271 12.61221313 50.26576233 C13.80494843 50.28247482 14.99768372 50.29918732 16.2265625 50.31640625 C18.05349136 50.3475779 18.05349136 50.3475779 19.91732788 50.37937927 C23.8198262 50.44492584 27.7223935 50.50378355 31.625 50.5625 C34.26563222 50.60568035 36.90625739 50.64929448 39.546875 50.69335938 C46.03117643 50.80061244 52.51554694 50.90236929 59 51 C59 51.33 59 51.66 59 52 C39.53 52 20.06 52 0 52 C0 34.84 0 17.68 0 0 Z " fill="#45407C" transform="translate(603,608)"/>
<path d="M0 0 C2.2443195 3.36647925 2.2450516 4.45622646 2.22705078 8.3894043 C2.22680908 9.50569214 2.22656738 10.62197998 2.22631836 11.77209473 C2.21097046 13.53039612 2.21097046 13.53039612 2.1953125 15.32421875 C2.19329834 16.40239868 2.19128418 17.48057861 2.18920898 18.59143066 C2.17873572 22.62349698 2.15081319 26.65550271 2.125 30.6875 C2.08375 39.700625 2.0425 48.71375 2 58 C-16.48 58 -34.96 58 -54 58 C-54 57.67 -54 57.34 -54 57 C-36.51 56.67 -19.02 56.34 -1 56 C-0.19996438 37.29916747 0.1329535 18.71371597 0 0 Z " fill="#8979DE" transform="translate(662,603)"/>
<path d="M0 0 C0.33 0 0.66 0 1 0 C1.33 31.02 1.66 62.04 2 94 C11.9 94 21.8 94 32 94 C22.18647182 98.90676409 9.36659712 97 -1 97 C-0.67 64.99 -0.34 32.98 0 0 Z " fill="#6D63AF" transform="translate(773,370)"/>
<path d="M0 0 C0.33 0 0.66 0 1 0 C2.00126615 19.77766937 1.90940846 39.21794729 1 59 C0.67 59 0.34 59 0 59 C-0.72212762 39.28313225 -1.32892777 19.70902103 0 0 Z " fill="#4E4982" transform="translate(661,597)"/>
<path d="M0 0 C10.23 0 20.46 0 31 0 C23.76296299 3.61851851 15.89896589 3.14279407 7.9375 3.0625 C7.07189453 3.05798828 6.20628906 3.05347656 5.31445312 3.04882812 C3.20960461 3.03719913 1.10479242 3.01927073 -1 3 C-0.67 2.01 -0.34 1.02 0 0 Z " fill="#564F8F" transform="translate(774,464)"/>
<path d="M0 0 C0.33 0 0.66 0 1 0 C1.04898438 0.71027344 1.09796875 1.42054688 1.1484375 2.15234375 C1.22320313 3.07144531 1.29796875 3.99054687 1.375 4.9375 C1.44460938 5.85402344 1.51421875 6.77054688 1.5859375 7.71484375 C1.72257813 8.46894531 1.85921875 9.22304688 2 10 C2.66 10.33 3.32 10.66 4 11 C2.02 11.99 2.02 11.99 0 13 C0 8.71 0 4.42 0 0 Z " fill="#635BA6" transform="translate(603,647)"/>
<path d="M0 0 C1.9375 0.625 1.9375 0.625 4 2 C4.75 5.125 4.75 5.125 5 8 C4.34 8 3.68 8 3 8 C0 2.25 0 2.25 0 0 Z " fill="#756AB9" transform="translate(942,336)"/>
<path d="M0 0 C0.66 0.99 1.32 1.98 2 3 C0.02 5.97 0.02 5.97 -2 9 C-2.6875 7.3125 -2.6875 7.3125 -3 5 C-1.5625 2.25 -1.5625 2.25 0 0 Z " fill="#7065B7" transform="translate(839,439)"/>
<path d="M0 0 C1.65 0 3.3 0 5 0 C5 0.33 5 0.66 5 1 C3.35 1 1.7 1 0 1 C0 0.67 0 0.34 0 0 Z " fill="#897CD2" transform="translate(636,657)"/>
<path d="M0 0 C4 1 4 1 4 1 Z " fill="#8478C5" transform="translate(587,766)"/>
<path d="M0 0 C4 1 4 1 4 1 Z " fill="#887CD1" transform="translate(836,657)"/>
<path d="M0 0 C4 1 4 1 4 1 Z " fill="#8679CF" transform="translate(779,486)"/>
<path d="M0 0 C3 1 3 1 3 1 Z " fill="#897BD1" transform="translate(610,657)"/>
<path d="" fill="#8777CD" transform="translate(0,0)"/>
<path d="" fill="#8778CE" transform="translate(0,0)"/>
<path d="" fill="#8979CE" transform="translate(0,0)"/>
<path d="" fill="#8779CE" transform="translate(0,0)"/>
<path d="" fill="#8879D0" transform="translate(0,0)"/>
<path d="" fill="#8778CF" transform="translate(0,0)"/>
<path d="M0 0 C0.33 0.66 0.66 1.32 1 2 C0.34 1.67 -0.32 1.34 -1 1 C-0.67 0.67 -0.34 0.34 0 0 Z " fill="#8377C7" transform="translate(950,441)"/>
<path d="" fill="#8779CF" transform="translate(0,0)"/>
<path d="" fill="#8679D0" transform="translate(0,0)"/>
<path d="" fill="#8778CF" transform="translate(0,0)"/>
<path d="M0 0 C0.99 0.495 0.99 0.495 2 1 C1.01 1.495 1.01 1.495 0 2 C0 1.34 0 0.68 0 0 Z " fill="#8276C4" transform="translate(932,313)"/>
<path d="M0 0 C0.66 0.66 1.32 1.32 2 2 C1.34 2 0.68 2 0 2 C0 1.34 0 0.68 0 0 Z " fill="#8579C8" transform="translate(925,308)"/>
<path d="M0 0 C0.66 0 1.32 0 2 0 C1.67 0.66 1.34 1.32 1 2 C0.67 1.34 0.34 0.68 0 0 Z " fill="#8477C4" transform="translate(925,305)"/>
<path d="M0 0 C2 1 2 1 2 1 Z " fill="#696969" transform="translate(948,997)"/>
<path d="M0 0 C2 1 2 1 2 1 Z " fill="#69696A" transform="translate(1090,955)"/>
<path d="" fill="#6B6C6A" transform="translate(0,0)"/>
<path d="M0 0 C2 1 2 1 2 1 Z " fill="#787589" transform="translate(948,805)"/>
<path d="M0 0 C2 1 2 1 2 1 Z " fill="#8577C7" transform="translate(723,766)"/>
<path d="M0 0 C2 1 2 1 2 1 Z " fill="#8477C6" transform="translate(675,766)"/>
<path d="M0 0 C2 1 2 1 2 1 Z " fill="#8476C6" transform="translate(619,766)"/>
<path d="M0 0 C2 1 2 1 2 1 Z " fill="#8276C7" transform="translate(822,763)"/>
<path d="M0 0 C2 1 2 1 2 1 Z " fill="#8078B1" transform="translate(948,717)"/>
<path d="M0 0 C2 1 2 1 2 1 Z " fill="#76757E" transform="translate(1090,699)"/>
<path d="M0 0 C2 1 2 1 2 1 Z " fill="#877ACF" transform="translate(844,657)"/>
<path d="M0 0 C2 1 2 1 2 1 Z " fill="#8676CA" transform="translate(658,657)"/>
<path d="M0 0 C2 1 2 1 2 1 Z " fill="#8A7CD2" transform="translate(645,657)"/>
<path d="M0 0 C2 1 2 1 2 1 Z " fill="#877CD2" transform="translate(630,657)"/>
<path d="" fill="#8778CE" transform="translate(0,0)"/>
<path d="" fill="#887AD1" transform="translate(0,0)"/>
<path d="" fill="#897AD0" transform="translate(0,0)"/>
<path d="" fill="#8879CF" transform="translate(0,0)"/>
<path d="" fill="#8378C7" transform="translate(0,0)"/>
<path d="" fill="#8779CD" transform="translate(0,0)"/>
<path d="M0 0 C2 1 2 1 2 1 Z " fill="#8A7CCB" transform="translate(752,536)"/>
<path d="M0 0 C2 1 2 1 2 1 Z " fill="#8A7DCD" transform="translate(737,536)"/>
<path d="M0 0 C2 1 2 1 2 1 Z " fill="#897DCA" transform="translate(704,536)"/>
<path d="M0 0 C2 1 2 1 2 1 Z " fill="#8678CB" transform="translate(662,536)"/>
<path d="M0 0 C2 1 2 1 2 1 Z " fill="#787681" transform="translate(1090,531)"/>
<path d="M0 0 C2 1 2 1 2 1 Z " fill="#78757F" transform="translate(1090,387)"/>
<path d="M0 0 C2 1 2 1 2 1 Z " fill="#8778CC" transform="translate(832,385)"/>
<path d="" fill="#8B7CD3" transform="translate(0,0)"/>
<path d="" fill="#7C798C" transform="translate(0,0)"/>
<path d="M0 0 C2 1 2 1 2 1 Z " fill="#8476C3" transform="translate(948,341)"/>
<path d="M0 0 C2 1 2 1 2 1 Z " fill="#8377C5" transform="translate(849,266)"/>
<path d="M0 0 C2 1 2 1 2 1 Z " fill="#6A6A69" transform="translate(1090,59)"/>
<path d="" fill="#696A69" transform="translate(0,0)"/>
<path d="" fill="#686868" transform="translate(0,0)"/>
<path d="" fill="#686667" transform="translate(0,0)"/>
<path d="" fill="#676869" transform="translate(0,0)"/>
<path d="" fill="#686968" transform="translate(0,0)"/>
<path d="" fill="#69686B" transform="translate(0,0)"/>
<path d="" fill="#6B696D" transform="translate(0,0)"/>
<path d="" fill="#676667" transform="translate(0,0)"/>
<path d="" fill="#696868" transform="translate(0,0)"/>
<path d="" fill="#676768" transform="translate(0,0)"/>
<path d="" fill="#676768" transform="translate(0,0)"/>
<path d="" fill="#686969" transform="translate(0,0)"/>
<path d="" fill="#696969" transform="translate(0,0)"/>
<path d="" fill="#67696A" transform="translate(0,0)"/>
<path d="" fill="#676967" transform="translate(0,0)"/>
<path d="" fill="#686867" transform="translate(0,0)"/>
<path d="" fill="#696B69" transform="translate(0,0)"/>
<path d="" fill="#6A6B6A" transform="translate(0,0)"/>
<path d="" fill="#666567" transform="translate(0,0)"/>
<path d="" fill="#676A69" transform="translate(0,0)"/>
<path d="" fill="#6A6A68" transform="translate(0,0)"/>
<path d="" fill="#6B6A6B" transform="translate(0,0)"/>
<path d="" fill="#686767" transform="translate(0,0)"/>
<path d="" fill="#666666" transform="translate(0,0)"/>
<path d="" fill="#686668" transform="translate(0,0)"/>
<path d="" fill="#6A696A" transform="translate(0,0)"/>
<path d="" fill="#696968" transform="translate(0,0)"/>
<path d="" fill="#676766" transform="translate(0,0)"/>
<path d="" fill="#68696A" transform="translate(0,0)"/>
<path d="" fill="#686867" transform="translate(0,0)"/>
<path d="" fill="#686868" transform="translate(0,0)"/>
<path d="" fill="#696A68" transform="translate(0,0)"/>
<path d="" fill="#6B6B69" transform="translate(0,0)"/>
<path d="" fill="#6A6A6A" transform="translate(0,0)"/>
<path d="" fill="#6A6A6A" transform="translate(0,0)"/>
<path d="" fill="#696968" transform="translate(0,0)"/>
<path d="" fill="#686768" transform="translate(0,0)"/>
<path d="" fill="#696B68" transform="translate(0,0)"/>
<path d="" fill="#686969" transform="translate(0,0)"/>
<path d="" fill="#676665" transform="translate(0,0)"/>
<path d="" fill="#686868" transform="translate(0,0)"/>
<path d="" fill="#676969" transform="translate(0,0)"/>
<path d="" fill="#686B6A" transform="translate(0,0)"/>
<path d="" fill="#6A6869" transform="translate(0,0)"/>
<path d="" fill="#6A6B6B" transform="translate(0,0)"/>
<path d="" fill="#686768" transform="translate(0,0)"/>
<path d="" fill="#6A6868" transform="translate(0,0)"/>
<path d="" fill="#686968" transform="translate(0,0)"/>
<path d="" fill="#686869" transform="translate(0,0)"/>
<path d="" fill="#6A6A69" transform="translate(0,0)"/>
<path d="" fill="#6A696A" transform="translate(0,0)"/>
<path d="" fill="#686967" transform="translate(0,0)"/>
<path d="" fill="#69696A" transform="translate(0,0)"/>
<path d="" fill="#686768" transform="translate(0,0)"/>
<path d="" fill="#686767" transform="translate(0,0)"/>
<path d="" fill="#696768" transform="translate(0,0)"/>
<path d="" fill="#6A6A68" transform="translate(0,0)"/>
<path d="" fill="#6B6A69" transform="translate(0,0)"/>
<path d="" fill="#6B6B6A" transform="translate(0,0)"/>
<path d="" fill="#676868" transform="translate(0,0)"/>
<path d="" fill="#686B69" transform="translate(0,0)"/>
<path d="" fill="#686968" transform="translate(0,0)"/>
<path d="" fill="#6B6B6C" transform="translate(0,0)"/>
<path d="" fill="#6A6A6B" transform="translate(0,0)"/>
<path d="" fill="#6A6B69" transform="translate(0,0)"/>
<path d="" fill="#676869" transform="translate(0,0)"/>
<path d="" fill="#686A69" transform="translate(0,0)"/>
<path d="" fill="#6B6969" transform="translate(0,0)"/>
<path d="" fill="#696A69" transform="translate(0,0)"/>
<path d="" fill="#6C6A6C" transform="translate(0,0)"/>
<path d="" fill="#676769" transform="translate(0,0)"/>
<path d="" fill="#686B6A" transform="translate(0,0)"/>
<path d="" fill="#6B6A6C" transform="translate(0,0)"/>
<path d="" fill="#69696B" transform="translate(0,0)"/>
<path d="" fill="#6A6A6B" transform="translate(0,0)"/>
<path d="" fill="#686969" transform="translate(0,0)"/>
<path d="" fill="#666565" transform="translate(0,0)"/>
<path d="" fill="#6B6868" transform="translate(0,0)"/>
<path d="" fill="#696B6A" transform="translate(0,0)"/>
<path d="" fill="#686A6A" transform="translate(0,0)"/>
<path d="" fill="#6B6A6B" transform="translate(0,0)"/>
<path d="" fill="#6C6A6D" transform="translate(0,0)"/>
<path d="" fill="#676768" transform="translate(0,0)"/>
<path d="" fill="#696969" transform="translate(0,0)"/>
<path d="" fill="#6A6A6A" transform="translate(0,0)"/>
<path d="" fill="#6A6C6A" transform="translate(0,0)"/>
<path d="" fill="#6A6B6A" transform="translate(0,0)"/>
<path d="" fill="#6A6968" transform="translate(0,0)"/>
<path d="" fill="#686868" transform="translate(0,0)"/>
<path d="" fill="#69696A" transform="translate(0,0)"/>
<path d="" fill="#686A69" transform="translate(0,0)"/>
<path d="" fill="#6A6A69" transform="translate(0,0)"/>
<path d="" fill="#6E6B6C" transform="translate(0,0)"/>
<path d="" fill="#696A6A" transform="translate(0,0)"/>
<path d="" fill="#6A6C6A" transform="translate(0,0)"/>
<path d="" fill="#6A6B6A" transform="translate(0,0)"/>
<path d="" fill="#6D6B6C" transform="translate(0,0)"/>
<path d="" fill="#696B69" transform="translate(0,0)"/>
<path d="" fill="#696B6A" transform="translate(0,0)"/>
<path d="" fill="#6A6A6A" transform="translate(0,0)"/>
<path d="" fill="#6B6B6B" transform="translate(0,0)"/>
<path d="" fill="#6C6D6E" transform="translate(0,0)"/>
<path d="" fill="#696B6C" transform="translate(0,0)"/>
<path d="" fill="#686869" transform="translate(0,0)"/>
<path d="" fill="#676767" transform="translate(0,0)"/>
<path d="" fill="#6B6B6B" transform="translate(0,0)"/>
<path d="" fill="#696A6A" transform="translate(0,0)"/>
<path d="" fill="#6C6C6B" transform="translate(0,0)"/>
<path d="" fill="#6B6C6D" transform="translate(0,0)"/>
<path d="" fill="#696B69" transform="translate(0,0)"/>
<path d="" fill="#6B6B6A" transform="translate(0,0)"/>
<path d="" fill="#696C6B" transform="translate(0,0)"/>
<path d="" fill="#6B6C6B" transform="translate(0,0)"/>
<path d="" fill="#676767" transform="translate(0,0)"/>
<path d="" fill="#6A6A6A" transform="translate(0,0)"/>
<path d="" fill="#6C6B6A" transform="translate(0,0)"/>
<path d="" fill="#6C6B6B" transform="translate(0,0)"/>
<path d="" fill="#6D6B6C" transform="translate(0,0)"/>
<path d="" fill="#6B6C6A" transform="translate(0,0)"/>
<path d="" fill="#676869" transform="translate(0,0)"/>
<path d="" fill="#6A6B6B" transform="translate(0,0)"/>
<path d="" fill="#6C6C6D" transform="translate(0,0)"/>
<path d="" fill="#676869" transform="translate(0,0)"/>
<path d="" fill="#666868" transform="translate(0,0)"/>
<path d="" fill="#686768" transform="translate(0,0)"/>
<path d="" fill="#6B6A6B" transform="translate(0,0)"/>
<path d="" fill="#6A6B6A" transform="translate(0,0)"/>
<path d="" fill="#6C6C6B" transform="translate(0,0)"/>
<path d="" fill="#6F6D6E" transform="translate(0,0)"/>
<path d="" fill="#6D6C6D" transform="translate(0,0)"/>
<path d="" fill="#696968" transform="translate(0,0)"/>
<path d="" fill="#686869" transform="translate(0,0)"/>
<path d="" fill="#6B6C6A" transform="translate(0,0)"/>
<path d="" fill="#676869" transform="translate(0,0)"/>
<path d="" fill="#696B6B" transform="translate(0,0)"/>
<path d="" fill="#6B6E6C" transform="translate(0,0)"/>
<path d="" fill="#6D6D6E" transform="translate(0,0)"/>
<path d="" fill="#6A6C6B" transform="translate(0,0)"/>
<path d="" fill="#696A68" transform="translate(0,0)"/>
<path d="" fill="#6C6C6B" transform="translate(0,0)"/>
<path d="" fill="#6C6D6D" transform="translate(0,0)"/>
<path d="" fill="#6A696A" transform="translate(0,0)"/>
<path d="" fill="#6B6C6C" transform="translate(0,0)"/>
<path d="" fill="#67686A" transform="translate(0,0)"/>
<path d="" fill="#6B6A6A" transform="translate(0,0)"/>
<path d="" fill="#6A6C6C" transform="translate(0,0)"/>
<path d="" fill="#6E6D6F" transform="translate(0,0)"/>
<path d="" fill="#6A6B69" transform="translate(0,0)"/>
<path d="" fill="#6B6C6C" transform="translate(0,0)"/>
<path d="" fill="#696867" transform="translate(0,0)"/>
<path d="" fill="#696868" transform="translate(0,0)"/>
<path d="" fill="#6B6B6B" transform="translate(0,0)"/>
<path d="" fill="#6C6D6C" transform="translate(0,0)"/>
<path d="" fill="#6A6B6C" transform="translate(0,0)"/>
<path d="" fill="#696B69" transform="translate(0,0)"/>
<path d="" fill="#696A69" transform="translate(0,0)"/>
<path d="" fill="#686768" transform="translate(0,0)"/>
<path d="" fill="#6C6B6B" transform="translate(0,0)"/>
<path d="" fill="#6A6D6D" transform="translate(0,0)"/>
<path d="" fill="#6C6C6B" transform="translate(0,0)"/>
<path d="" fill="#6E6C70" transform="translate(0,0)"/>
<path d="" fill="#686869" transform="translate(0,0)"/>
<path d="" fill="#6B6D6D" transform="translate(0,0)"/>
<path d="" fill="#6B6B6C" transform="translate(0,0)"/>
<path d="" fill="#6C6C6B" transform="translate(0,0)"/>
<path d="" fill="#6B6E6C" transform="translate(0,0)"/>
<path d="" fill="#676566" transform="translate(0,0)"/>
<path d="" fill="#696967" transform="translate(0,0)"/>
<path d="" fill="#6C6B6C" transform="translate(0,0)"/>
<path d="" fill="#6B6B6C" transform="translate(0,0)"/>
<path d="" fill="#6C6D6E" transform="translate(0,0)"/>
<path d="" fill="#707071" transform="translate(0,0)"/>
<path d="" fill="#6A6968" transform="translate(0,0)"/>
<path d="" fill="#69696A" transform="translate(0,0)"/>
<path d="" fill="#6C6E6C" transform="translate(0,0)"/>
<path d="" fill="#696969" transform="translate(0,0)"/>
<path d="" fill="#6B6D6D" transform="translate(0,0)"/>
<path d="" fill="#6C6C6D" transform="translate(0,0)"/>
<path d="" fill="#6E6E71" transform="translate(0,0)"/>
<path d="" fill="#6D6C6F" transform="translate(0,0)"/>
<path d="" fill="#6B6C6D" transform="translate(0,0)"/>
<path d="" fill="#696969" transform="translate(0,0)"/>
<path d="" fill="#6B6A6C" transform="translate(0,0)"/>
<path d="" fill="#6D6C6D" transform="translate(0,0)"/>
<path d="" fill="#686968" transform="translate(0,0)"/>
<path d="" fill="#686A69" transform="translate(0,0)"/>
<path d="" fill="#6E6F6E" transform="translate(0,0)"/>
<path d="" fill="#68696A" transform="translate(0,0)"/>
<path d="" fill="#6C6D6C" transform="translate(0,0)"/>
<path d="" fill="#6D6D6E" transform="translate(0,0)"/>
<path d="" fill="#6F6E72" transform="translate(0,0)"/>
<path d="" fill="#6D6A6B" transform="translate(0,0)"/>
<path d="" fill="#6B6E6D" transform="translate(0,0)"/>
<path d="" fill="#6C6F6E" transform="translate(0,0)"/>
<path d="" fill="#6F6F73" transform="translate(0,0)"/>
<path d="" fill="#6C6E6D" transform="translate(0,0)"/>
<path d="" fill="#6A6A68" transform="translate(0,0)"/>
<path d="" fill="#6D6E6F" transform="translate(0,0)"/>
<path d="" fill="#717178" transform="translate(0,0)"/>
<path d="" fill="#6D6E6D" transform="translate(0,0)"/>
<path d="" fill="#6D6F70" transform="translate(0,0)"/>
<path d="" fill="#707074" transform="translate(0,0)"/>
<path d="" fill="#6D6D6C" transform="translate(0,0)"/>
<path d="" fill="#6D6E6E" transform="translate(0,0)"/>
<path d="" fill="#6A6A68" transform="translate(0,0)"/>
<path d="" fill="#6D6E6D" transform="translate(0,0)"/>
<path d="" fill="#6F6F70" transform="translate(0,0)"/>
<path d="" fill="#707178" transform="translate(0,0)"/>
<path d="" fill="#696A69" transform="translate(0,0)"/>
<path d="" fill="#6D7070" transform="translate(0,0)"/>
<path d="" fill="#726F75" transform="translate(0,0)"/>
<path d="" fill="#6C6F70" transform="translate(0,0)"/>
<path d="" fill="#69696A" transform="translate(0,0)"/>
<path d="" fill="#6D6E6E" transform="translate(0,0)"/>
<path d="" fill="#6F7072" transform="translate(0,0)"/>
<path d="" fill="#75717B" transform="translate(0,0)"/>
<path d="" fill="#716F77" transform="translate(0,0)"/>
<path d="" fill="#6D6F6E" transform="translate(0,0)"/>
<path d="" fill="#6B6B6C" transform="translate(0,0)"/>
<path d="" fill="#6A6A6B" transform="translate(0,0)"/>
<path d="" fill="#6E706E" transform="translate(0,0)"/>
<path d="" fill="#6B6A6B" transform="translate(0,0)"/>
<path d="" fill="#6A6969" transform="translate(0,0)"/>
<path d="" fill="#6F6F71" transform="translate(0,0)"/>
<path d="" fill="#727177" transform="translate(0,0)"/>
<path d="" fill="#6A6A6A" transform="translate(0,0)"/>
<path d="" fill="#6D6D6B" transform="translate(0,0)"/>
<path d="" fill="#6C6E6C" transform="translate(0,0)"/>
<path d="" fill="#6E6F70" transform="translate(0,0)"/>
<path d="" fill="#737278" transform="translate(0,0)"/>
<path d="" fill="#6D6B6C" transform="translate(0,0)"/>
<path d="" fill="#6B696A" transform="translate(0,0)"/>
<path d="" fill="#6A6A6A" transform="translate(0,0)"/>
<path d="" fill="#6E6E6F" transform="translate(0,0)"/>
<path d="" fill="#6C6B6C" transform="translate(0,0)"/>
<path d="" fill="#6B6B6B" transform="translate(0,0)"/>
<path d="" fill="#6F7074" transform="translate(0,0)"/>
<path d="" fill="#727279" transform="translate(0,0)"/>
<path d="" fill="#6F7072" transform="translate(0,0)"/>
<path d="" fill="#727275" transform="translate(0,0)"/>
<path d="" fill="#6C6B6A" transform="translate(0,0)"/>
<path d="" fill="#716F74" transform="translate(0,0)"/>
<path d="" fill="#73727B" transform="translate(0,0)"/>
<path d="" fill="#70716F" transform="translate(0,0)"/>
<path d="" fill="#707175" transform="translate(0,0)"/>
<path d="" fill="#74727C" transform="translate(0,0)"/>
<path d="" fill="#707072" transform="translate(0,0)"/>
<path d="" fill="#74747B" transform="translate(0,0)"/>
<path d="" fill="#6C6C6A" transform="translate(0,0)"/>
<path d="" fill="#717175" transform="translate(0,0)"/>
<path d="" fill="#74727D" transform="translate(0,0)"/>
<path d="" fill="#707170" transform="translate(0,0)"/>
<path d="" fill="#6A6A6A" transform="translate(0,0)"/>
<path d="" fill="#707177" transform="translate(0,0)"/>
<path d="" fill="#74747E" transform="translate(0,0)"/>
<path d="" fill="#6B6B6C" transform="translate(0,0)"/>
<path d="" fill="#6D6A6A" transform="translate(0,0)"/>
<path d="" fill="#6F6D6E" transform="translate(0,0)"/>
<path d="" fill="#6F7173" transform="translate(0,0)"/>
<path d="" fill="#706F70" transform="translate(0,0)"/>
<path d="" fill="#737278" transform="translate(0,0)"/>
<path d="" fill="#6C6C6C" transform="translate(0,0)"/>
<path d="" fill="#727278" transform="translate(0,0)"/>
<path d="" fill="#767581" transform="translate(0,0)"/>
<path d="" fill="#6E6D6F" transform="translate(0,0)"/>
<path d="" fill="#6C6D6C" transform="translate(0,0)"/>
<path d="" fill="#707072" transform="translate(0,0)"/>
<path d="" fill="#747379" transform="translate(0,0)"/>
<path d="" fill="#74747B" transform="translate(0,0)"/>
<path d="" fill="#777584" transform="translate(0,0)"/>
<path d="" fill="#706F70" transform="translate(0,0)"/>
<path d="" fill="#6D6C6D" transform="translate(0,0)"/>
<path d="" fill="#707073" transform="translate(0,0)"/>
<path d="" fill="#777689" transform="translate(0,0)"/>
<path d="" fill="#6D6D6D" transform="translate(0,0)"/>
<path d="" fill="#73747C" transform="translate(0,0)"/>
<path d="" fill="#787687" transform="translate(0,0)"/>
<path d="" fill="#6C6D6D" transform="translate(0,0)"/>
<path d="" fill="#727174" transform="translate(0,0)"/>
<path d="" fill="#717378" transform="translate(0,0)"/>
<path d="" fill="#76747E" transform="translate(0,0)"/>
<path d="" fill="#79768C" transform="translate(0,0)"/>
<path d="" fill="#6E6E6D" transform="translate(0,0)"/>
<path d="" fill="#6D6D6D" transform="translate(0,0)"/>
<path d="" fill="#717376" transform="translate(0,0)"/>
<path d="" fill="#75747F" transform="translate(0,0)"/>
<path d="" fill="#79778C" transform="translate(0,0)"/>
<path d="" fill="#7A778B" transform="translate(0,0)"/>
<path d="" fill="#78768B" transform="translate(0,0)"/>
<path d="" fill="#6E6C6C" transform="translate(0,0)"/>
<path d="" fill="#717171" transform="translate(0,0)"/>
<path d="" fill="#6D6E6C" transform="translate(0,0)"/>
<path d="" fill="#727576" transform="translate(0,0)"/>
<path d="" fill="#6E6E6E" transform="translate(0,0)"/>
<path d="" fill="#747477" transform="translate(0,0)"/>
<path d="" fill="#757483" transform="translate(0,0)"/>
<path d="" fill="#7B7790" transform="translate(0,0)"/>
<path d="" fill="#6D6D6D" transform="translate(0,0)"/>
<path d="" fill="#6C706D" transform="translate(0,0)"/>
<path d="" fill="#6E6F6D" transform="translate(0,0)"/>
<path d="" fill="#76757D" transform="translate(0,0)"/>
<path d="" fill="#777585" transform="translate(0,0)"/>
<path d="" fill="#6F6F6D" transform="translate(0,0)"/>
<path d="" fill="#727277" transform="translate(0,0)"/>
<path d="" fill="#777586" transform="translate(0,0)"/>
<path d="" fill="#7C7994" transform="translate(0,0)"/>
<path d="" fill="#6D6E6F" transform="translate(0,0)"/>
<path d="" fill="#76747E" transform="translate(0,0)"/>
<path d="" fill="#6E6F6D" transform="translate(0,0)"/>
<path d="" fill="#717374" transform="translate(0,0)"/>
<path d="" fill="#7E7897" transform="translate(0,0)"/>
<path d="" fill="#6D6E6E" transform="translate(0,0)"/>
<path d="" fill="#6F6C6D" transform="translate(0,0)"/>
<path d="" fill="#727273" transform="translate(0,0)"/>
<path d="" fill="#79758A" transform="translate(0,0)"/>
<path d="" fill="#6F6F6F" transform="translate(0,0)"/>
<path d="" fill="#75767A" transform="translate(0,0)"/>
<path d="" fill="#6E6E6E" transform="translate(0,0)"/>
<path d="" fill="#76747C" transform="translate(0,0)"/>
<path d="" fill="#79758C" transform="translate(0,0)"/>
<path d="" fill="#7F799C" transform="translate(0,0)"/>
<path d="" fill="#6F6E6F" transform="translate(0,0)"/>
<path d="" fill="#6F706E" transform="translate(0,0)"/>
<path d="" fill="#737276" transform="translate(0,0)"/>
<path d="" fill="#777683" transform="translate(0,0)"/>
<path d="" fill="#7A768D" transform="translate(0,0)"/>
<path d="" fill="#6E6F6F" transform="translate(0,0)"/>
<path d="" fill="#77767C" transform="translate(0,0)"/>
<path d="" fill="#777785" transform="translate(0,0)"/>
<path d="" fill="#6D6F6F" transform="translate(0,0)"/>
<path d="" fill="#8079A1" transform="translate(0,0)"/>
<path d="" fill="#6E6E6E" transform="translate(0,0)"/>
<path d="" fill="#6F6E6E" transform="translate(0,0)"/>
<path d="" fill="#707070" transform="translate(0,0)"/>
<path d="" fill="#787684" transform="translate(0,0)"/>
<path d="" fill="#76757C" transform="translate(0,0)"/>
<path d="" fill="#757681" transform="translate(0,0)"/>
<path d="" fill="#7B7592" transform="translate(0,0)"/>
<path d="" fill="#8376AF" transform="translate(0,0)"/>
<path d="" fill="#78778C" transform="translate(0,0)"/>
<path d="" fill="#70706E" transform="translate(0,0)"/>
<path d="" fill="#74757D" transform="translate(0,0)"/>
<path d="" fill="#8179A6" transform="translate(0,0)"/>
<path d="" fill="#787787" transform="translate(0,0)"/>
<path d="" fill="#707271" transform="translate(0,0)"/>
<path d="" fill="#76757E" transform="translate(0,0)"/>
<path d="" fill="#7C7695" transform="translate(0,0)"/>
<path d="" fill="#7B7796" transform="translate(0,0)"/>
<path d="" fill="#8278B6" transform="translate(0,0)"/>
<path d="" fill="#817AAE" transform="translate(0,0)"/>
<path d="" fill="#6E6E6F" transform="translate(0,0)"/>
<path d="" fill="#8178AC" transform="translate(0,0)"/>
<path d="" fill="#717170" transform="translate(0,0)"/>
<path d="" fill="#7C7899" transform="translate(0,0)"/>
<path d="" fill="#8376C6" transform="translate(0,0)"/>
<path d="" fill="#8274C5" transform="translate(0,0)"/>
<path d="" fill="#8476C6" transform="translate(0,0)"/>
<path d="" fill="#8577C8" transform="translate(0,0)"/>
<path d="" fill="#8278C7" transform="translate(0,0)"/>
<path d="" fill="#8578C7" transform="translate(0,0)"/>
<path d="" fill="#8677C7" transform="translate(0,0)"/>
<path d="" fill="#8679C6" transform="translate(0,0)"/>
<path d="" fill="#8577C7" transform="translate(0,0)"/>
<path d="" fill="#8378C8" transform="translate(0,0)"/>
<path d="" fill="#8578C8" transform="translate(0,0)"/>
<path d="" fill="#867AC8" transform="translate(0,0)"/>
<path d="" fill="#8478C7" transform="translate(0,0)"/>
<path d="" fill="#8477C5" transform="translate(0,0)"/>
<path d="" fill="#8478C6" transform="translate(0,0)"/>
<path d="" fill="#6F6E6E" transform="translate(0,0)"/>
<path d="" fill="#7B7799" transform="translate(0,0)"/>
<path d="" fill="#8577C2" transform="translate(0,0)"/>
<path d="" fill="#7F76BB" transform="translate(0,0)"/>
<path d="" fill="#837AB3" transform="translate(0,0)"/>
<path d="" fill="#6E6E6E" transform="translate(0,0)"/>
<path d="" fill="#7E74B8" transform="translate(0,0)"/>
<path d="" fill="#8477C6" transform="translate(0,0)"/>
<path d="" fill="#7F76BB" transform="translate(0,0)"/>
<path d="" fill="#8478C5" transform="translate(0,0)"/>
<path d="" fill="#787882" transform="translate(0,0)"/>
<path d="" fill="#8378C7" transform="translate(0,0)"/>
<path d="" fill="#6E6F6F" transform="translate(0,0)"/>
<path d="" fill="#706E6D" transform="translate(0,0)"/>
<path d="" fill="#7B779D" transform="translate(0,0)"/>
<path d="" fill="#8375C5" transform="translate(0,0)"/>
<path d="" fill="#847AB9" transform="translate(0,0)"/>
<path d="" fill="#6E6D6E" transform="translate(0,0)"/>
<path d="" fill="#757379" transform="translate(0,0)"/>
<path d="" fill="#787783" transform="translate(0,0)"/>
<path d="" fill="#8379BB" transform="translate(0,0)"/>
<path d="" fill="#707172" transform="translate(0,0)"/>
<path d="" fill="#787682" transform="translate(0,0)"/>
<path d="" fill="#6E6F6E" transform="translate(0,0)"/>
<path d="" fill="#7C77A1" transform="translate(0,0)"/>
<path d="" fill="#867ABD" transform="translate(0,0)"/>
<path d="" fill="#6F6E6E" transform="translate(0,0)"/>
<path d="" fill="#7B7891" transform="translate(0,0)"/>
<path d="" fill="#716F71" transform="translate(0,0)"/>
<path d="" fill="#8077A4" transform="translate(0,0)"/>
<path d="" fill="#787783" transform="translate(0,0)"/>
<path d="" fill="#70726E" transform="translate(0,0)"/>
<path d="" fill="#6E6F6E" transform="translate(0,0)"/>
<path d="" fill="#7D78A4" transform="translate(0,0)"/>
<path d="" fill="#847AC0" transform="translate(0,0)"/>
<path d="" fill="#797685" transform="translate(0,0)"/>
<path d="" fill="#7B7894" transform="translate(0,0)"/>
<path d="" fill="#7F78A6" transform="translate(0,0)"/>
<path d="" fill="#6E706F" transform="translate(0,0)"/>
<path d="" fill="#7F78A8" transform="translate(0,0)"/>
<path d="" fill="#857AC0" transform="translate(0,0)"/>
<path d="" fill="#76757C" transform="translate(0,0)"/>
<path d="" fill="#7A7887" transform="translate(0,0)"/>
<path d="" fill="#7C7894" transform="translate(0,0)"/>
<path d="" fill="#787588" transform="translate(0,0)"/>
<path d="" fill="#8478C6" transform="translate(0,0)"/>
<path d="" fill="#6E6F6F" transform="translate(0,0)"/>
<path d="" fill="#7F77AD" transform="translate(0,0)"/>
<path d="" fill="#8579C1" transform="translate(0,0)"/>
<path d="" fill="#6E6E6E" transform="translate(0,0)"/>
<path d="" fill="#8375C8" transform="translate(0,0)"/>
<path d="" fill="#737372" transform="translate(0,0)"/>
<path d="" fill="#717173" transform="translate(0,0)"/>
<path d="" fill="#7A7888" transform="translate(0,0)"/>
<path d="" fill="#6F716E" transform="translate(0,0)"/>
<path d="" fill="#70716F" transform="translate(0,0)"/>
<path d="" fill="#6E6E6E" transform="translate(0,0)"/>
<path d="" fill="#6E6F6E" transform="translate(0,0)"/>
<path d="" fill="#867AC2" transform="translate(0,0)"/>
<path d="" fill="#6E6E6F" transform="translate(0,0)"/>
<path d="" fill="#76747D" transform="translate(0,0)"/>
<path d="" fill="#7A7889" transform="translate(0,0)"/>
<path d="" fill="#867AC1" transform="translate(0,0)"/>
<path d="" fill="#8279B3" transform="translate(0,0)"/>
<path d="" fill="#797989" transform="translate(0,0)"/>
<path d="" fill="#6E6F6E" transform="translate(0,0)"/>
<path d="" fill="#8079B5" transform="translate(0,0)"/>
<path d="" fill="#867BC3" transform="translate(0,0)"/>
<path d="" fill="#6F6F6E" transform="translate(0,0)"/>
<path d="" fill="#75737B" transform="translate(0,0)"/>
<path d="" fill="#717071" transform="translate(0,0)"/>
<path d="" fill="#6F6E6F" transform="translate(0,0)"/>
<path d="" fill="#7A778A" transform="translate(0,0)"/>
<path d="" fill="#6E6F6D" transform="translate(0,0)"/>
<path d="" fill="#8179B9" transform="translate(0,0)"/>
<path d="" fill="#8478C4" transform="translate(0,0)"/>
<path d="" fill="#857AC3" transform="translate(0,0)"/>
<path d="" fill="#777581" transform="translate(0,0)"/>
<path d="" fill="#7C778B" transform="translate(0,0)"/>
<path d="" fill="#8376C5" transform="translate(0,0)"/>
<path d="" fill="#717271" transform="translate(0,0)"/>
<path d="" fill="#7A768A" transform="translate(0,0)"/>
<path d="" fill="#8478BC" transform="translate(0,0)"/>
<path d="" fill="#6E6E6E" transform="translate(0,0)"/>
<path d="" fill="#6D6D6D" transform="translate(0,0)"/>
<path d="" fill="#8278BF" transform="translate(0,0)"/>
<path d="" fill="#867AC2" transform="translate(0,0)"/>
<path d="" fill="#6E6F6E" transform="translate(0,0)"/>
<path d="" fill="#6D6D6D" transform="translate(0,0)"/>
<path d="" fill="#727376" transform="translate(0,0)"/>
<path d="" fill="#7E7AA0" transform="translate(0,0)"/>
<path d="" fill="#717173" transform="translate(0,0)"/>
<path d="" fill="#75757B" transform="translate(0,0)"/>
<path d="" fill="#79778C" transform="translate(0,0)"/>
<path d="" fill="#8579C1" transform="translate(0,0)"/>
<path d="" fill="#717271" transform="translate(0,0)"/>
<path d="" fill="#8278C8" transform="translate(0,0)"/>
<path d="" fill="#706E6F" transform="translate(0,0)"/>
<path d="" fill="#847AC8" transform="translate(0,0)"/>
<path d="" fill="#8679C2" transform="translate(0,0)"/>
<path d="" fill="#77747F" transform="translate(0,0)"/>
<path d="" fill="#807AA1" transform="translate(0,0)"/>
<path d="" fill="#8579C8" transform="translate(0,0)"/>
<path d="" fill="#717274" transform="translate(0,0)"/>
<path d="" fill="#8678C3" transform="translate(0,0)"/>
<path d="" fill="#767580" transform="translate(0,0)"/>
<path d="" fill="#7F7AA3" transform="translate(0,0)"/>
<path d="" fill="#717273" transform="translate(0,0)"/>
<path d="" fill="#767680" transform="translate(0,0)"/>
<path d="" fill="#7B788E" transform="translate(0,0)"/>
<path d="" fill="#8578C1" transform="translate(0,0)"/>
<path d="" fill="#8477C8" transform="translate(0,0)"/>
<path d="" fill="#8076C6" transform="translate(0,0)"/>
<path d="" fill="#6E6E6E" transform="translate(0,0)"/>
<path d="" fill="#6E6F6F" transform="translate(0,0)"/>
<path d="" fill="#8479C9" transform="translate(0,0)"/>
<path d="" fill="#857AC3" transform="translate(0,0)"/>
<path d="" fill="#6D6E6E" transform="translate(0,0)"/>
<path d="" fill="#787580" transform="translate(0,0)"/>
<path d="" fill="#8179A6" transform="translate(0,0)"/>
<path d="" fill="#6E6F6D" transform="translate(0,0)"/>
<path d="" fill="#7B788F" transform="translate(0,0)"/>
<path d="" fill="#6D6E6E" transform="translate(0,0)"/>
<path d="" fill="#6F6E71" transform="translate(0,0)"/>
<path d="" fill="#8579C3" transform="translate(0,0)"/>
<path d="" fill="#6D6E6E" transform="translate(0,0)"/>
<path d="" fill="#8679C0" transform="translate(0,0)"/>
<path d="" fill="#6D6F6D" transform="translate(0,0)"/>
<path d="" fill="#717273" transform="translate(0,0)"/>
<path d="" fill="#7B778F" transform="translate(0,0)"/>
<path d="" fill="#8676CB" transform="translate(0,0)"/>
<path d="" fill="#897CD1" transform="translate(0,0)"/>
<path d="" fill="#8A7CD0" transform="translate(0,0)"/>
<path d="" fill="#877ACE" transform="translate(0,0)"/>
<path d="" fill="#897BD3" transform="translate(0,0)"/>
<path d="" fill="#897CD4" transform="translate(0,0)"/>
<path d="" fill="#8877D0" transform="translate(0,0)"/>
<path d="" fill="#8978D1" transform="translate(0,0)"/>
<path d="" fill="#877AC2" transform="translate(0,0)"/>
<path d="" fill="#787682" transform="translate(0,0)"/>
<path d="" fill="#8978CE" transform="translate(0,0)"/>
<path d="" fill="#887ACF" transform="translate(0,0)"/>
<path d="" fill="#8877CE" transform="translate(0,0)"/>
<path d="" fill="#867AC4" transform="translate(0,0)"/>
<path d="" fill="#8679CE" transform="translate(0,0)"/>
<path d="" fill="#747377" transform="translate(0,0)"/>
<path d="" fill="#8177C9" transform="translate(0,0)"/>
<path d="" fill="#6E6D6D" transform="translate(0,0)"/>
<path d="" fill="#8879CD" transform="translate(0,0)"/>
<path d="" fill="#6E6F6F" transform="translate(0,0)"/>
<path d="" fill="#6E6E6D" transform="translate(0,0)"/>
<path d="" fill="#8877D0" transform="translate(0,0)"/>
<path d="" fill="#867AC3" transform="translate(0,0)"/>
<path d="" fill="#72716F" transform="translate(0,0)"/>
<path d="" fill="#727071" transform="translate(0,0)"/>
<path d="" fill="#817AA7" transform="translate(0,0)"/>
<path d="" fill="#767580" transform="translate(0,0)"/>
<path d="" fill="#8679CD" transform="translate(0,0)"/>
<path d="" fill="#727275" transform="translate(0,0)"/>
<path d="" fill="#857AC1" transform="translate(0,0)"/>
<path d="" fill="#8377C9" transform="translate(0,0)"/>
<path d="" fill="#7E7A92" transform="translate(0,0)"/>
<path d="" fill="#887ACE" transform="translate(0,0)"/>
<path d="" fill="#6E6F6E" transform="translate(0,0)"/>
<path d="" fill="#877AC3" transform="translate(0,0)"/>
<path d="" fill="#7A7980" transform="translate(0,0)"/>
<path d="" fill="#6E6F6F" transform="translate(0,0)"/>
<path d="" fill="#717071" transform="translate(0,0)"/>
<path d="" fill="#787682" transform="translate(0,0)"/>
<path d="" fill="#837ABA" transform="translate(0,0)"/>
<path d="" fill="#727274" transform="translate(0,0)"/>
<path d="" fill="#877ACD" transform="translate(0,0)"/>
<path d="" fill="#6E706E" transform="translate(0,0)"/>
<path d="" fill="#8777CD" transform="translate(0,0)"/>
<path d="" fill="#8779C3" transform="translate(0,0)"/>
<path d="" fill="#8979CE" transform="translate(0,0)"/>
<path d="" fill="#716F70" transform="translate(0,0)"/>
<path d="" fill="#777681" transform="translate(0,0)"/>
<path d="" fill="#8179A9" transform="translate(0,0)"/>
<path d="" fill="#8278C8" transform="translate(0,0)"/>
<path d="" fill="#8678CE" transform="translate(0,0)"/>
<path d="" fill="#867AC1" transform="translate(0,0)"/>
<path d="" fill="#727274" transform="translate(0,0)"/>
<path d="" fill="#7C7890" transform="translate(0,0)"/>
<path d="" fill="#8876CD" transform="translate(0,0)"/>
<path d="" fill="#717171" transform="translate(0,0)"/>
<path d="" fill="#8879CD" transform="translate(0,0)"/>
<path d="" fill="#897AD2" transform="translate(0,0)"/>
<path d="" fill="#877AC4" transform="translate(0,0)"/>
<path d="" fill="#70726F" transform="translate(0,0)"/>
<path d="" fill="#6F6F6E" transform="translate(0,0)"/>
<path d="" fill="#716F70" transform="translate(0,0)"/>
<path d="" fill="#787681" transform="translate(0,0)"/>
<path d="" fill="#817AAA" transform="translate(0,0)"/>
<path d="" fill="#727273" transform="translate(0,0)"/>
<path d="" fill="#6E6F6E" transform="translate(0,0)"/>
<path d="" fill="#8779C5" transform="translate(0,0)"/>
<path d="" fill="#6E6F6E" transform="translate(0,0)"/>
<path d="" fill="#8279AB" transform="translate(0,0)"/>
<path d="" fill="#877ACE" transform="translate(0,0)"/>
<path d="" fill="#8778CE" transform="translate(0,0)"/>
<path d="" fill="#727374" transform="translate(0,0)"/>
<path d="" fill="#857AC3" transform="translate(0,0)"/>
<path d="" fill="#7D7A92" transform="translate(0,0)"/>
<path d="" fill="#877ACE" transform="translate(0,0)"/>
<path d="" fill="#6E706E" transform="translate(0,0)"/>
<path d="" fill="#857AC3" transform="translate(0,0)"/>
<path d="" fill="#8878CE" transform="translate(0,0)"/>
<path d="" fill="#817BAB" transform="translate(0,0)"/>
<path d="" fill="#887ACF" transform="translate(0,0)"/>
<path d="" fill="#727274" transform="translate(0,0)"/>
<path d="" fill="#7D7991" transform="translate(0,0)"/>
<path d="" fill="#8879D0" transform="translate(0,0)"/>
<path d="" fill="#8A78CB" transform="translate(0,0)"/>
<path d="" fill="#877ACC" transform="translate(0,0)"/>
<path d="" fill="#7C7791" transform="translate(0,0)"/>
<path d="" fill="#7E7994" transform="translate(0,0)"/>
<path d="" fill="#8878CF" transform="translate(0,0)"/>
<path d="" fill="#8779C4" transform="translate(0,0)"/>
<path d="" fill="#8879CD" transform="translate(0,0)"/>
<path d="" fill="#716E70" transform="translate(0,0)"/>
<path d="" fill="#7D7992" transform="translate(0,0)"/>
<path d="" fill="#7E75C3" transform="translate(0,0)"/>
<path d="" fill="#8878CD" transform="translate(0,0)"/>
<path d="" fill="#8478C3" transform="translate(0,0)"/>
<path d="" fill="#877AC5" transform="translate(0,0)"/>
<path d="" fill="#6F7070" transform="translate(0,0)"/>
<path d="" fill="#7D7891" transform="translate(0,0)"/>
<path d="" fill="#8179A8" transform="translate(0,0)"/>
<path d="" fill="#887AD0" transform="translate(0,0)"/>
<path d="" fill="#6F716E" transform="translate(0,0)"/>
<path d="" fill="#7D7891" transform="translate(0,0)"/>
<path d="" fill="#8979CE" transform="translate(0,0)"/>
<path d="" fill="#6E7171" transform="translate(0,0)"/>
<path d="" fill="#8478C7" transform="translate(0,0)"/>
<path d="" fill="#6F706F" transform="translate(0,0)"/>
<path d="" fill="#7E7A93" transform="translate(0,0)"/>
<path d="" fill="#877AC5" transform="translate(0,0)"/>
<path d="" fill="#6F706F" transform="translate(0,0)"/>
<path d="" fill="#7C7A92" transform="translate(0,0)"/>
<path d="" fill="#817AA8" transform="translate(0,0)"/>
<path d="" fill="#6F706E" transform="translate(0,0)"/>
<path d="" fill="#75757C" transform="translate(0,0)"/>
<path d="" fill="#7D7990" transform="translate(0,0)"/>
<path d="" fill="#7E7994" transform="translate(0,0)"/>
<path d="" fill="#837BA9" transform="translate(0,0)"/>
<path d="" fill="#8478C4" transform="translate(0,0)"/>
<path d="" fill="#707170" transform="translate(0,0)"/>
<path d="" fill="#707170" transform="translate(0,0)"/>
<path d="" fill="#6F6F6F" transform="translate(0,0)"/>
<path d="" fill="#777581" transform="translate(0,0)"/>
<path d="" fill="#8479CB" transform="translate(0,0)"/>
<path d="" fill="#707073" transform="translate(0,0)"/>
<path d="" fill="#74747B" transform="translate(0,0)"/>
<path d="" fill="#887AD2" transform="translate(0,0)"/>
<path d="" fill="#867AC4" transform="translate(0,0)"/>
<path d="" fill="#8A7AD2" transform="translate(0,0)"/>
<path d="" fill="#7D7990" transform="translate(0,0)"/>
<path d="" fill="#8878CE" transform="translate(0,0)"/>
<path d="" fill="#707070" transform="translate(0,0)"/>
<path d="" fill="#8677CD" transform="translate(0,0)"/>
<path d="" fill="#8A79D2" transform="translate(0,0)"/>
<path d="" fill="#877BC5" transform="translate(0,0)"/>
<path d="" fill="#6F7070" transform="translate(0,0)"/>
<path d="" fill="#6D6E6E" transform="translate(0,0)"/>
<path d="" fill="#837AA7" transform="translate(0,0)"/>
<path d="" fill="#887ACF" transform="translate(0,0)"/>
<path d="" fill="#8678D0" transform="translate(0,0)"/>
<path d="" fill="#8676CA" transform="translate(0,0)"/>
<path d="" fill="#897ACF" transform="translate(0,0)"/>
<path d="" fill="#707171" transform="translate(0,0)"/>
<path d="" fill="#847AC9" transform="translate(0,0)"/>
<path d="" fill="#867AC5" transform="translate(0,0)"/>
<path d="" fill="#707070" transform="translate(0,0)"/>
<path d="" fill="#7C7990" transform="translate(0,0)"/>
<path d="" fill="#8377C7" transform="translate(0,0)"/>
<path d="" fill="#847ACB" transform="translate(0,0)"/>
<path d="" fill="#70726F" transform="translate(0,0)"/>
<path d="" fill="#717273" transform="translate(0,0)"/>
<path d="" fill="#7D788F" transform="translate(0,0)"/>
<path d="" fill="#8679CC" transform="translate(0,0)"/>
<path d="" fill="#897ACD" transform="translate(0,0)"/>
<path d="" fill="#877AC3" transform="translate(0,0)"/>
<path d="" fill="#8B7FD0" transform="translate(0,0)"/>
<path d="" fill="#887CCE" transform="translate(0,0)"/>
<path d="" fill="#8A7CCD" transform="translate(0,0)"/>
<path d="" fill="#8B7CCE" transform="translate(0,0)"/>
<path d="" fill="#8C7CCB" transform="translate(0,0)"/>
<path d="" fill="#877ACC" transform="translate(0,0)"/>
<path d="" fill="#857ACC" transform="translate(0,0)"/>
<path d="" fill="#717070" transform="translate(0,0)"/>
<path d="" fill="#8378C6" transform="translate(0,0)"/>
<path d="" fill="#857AC4" transform="translate(0,0)"/>
<path d="" fill="#8678C7" transform="translate(0,0)"/>
<path d="" fill="#8878CD" transform="translate(0,0)"/>
<path d="" fill="#717274" transform="translate(0,0)"/>
<path d="" fill="#7C798E" transform="translate(0,0)"/>
<path d="" fill="#8678C5" transform="translate(0,0)"/>
<path d="" fill="#6D6E6C" transform="translate(0,0)"/>
<path d="" fill="#7D7A8E" transform="translate(0,0)"/>
<path d="" fill="#717271" transform="translate(0,0)"/>
<path d="" fill="#707170" transform="translate(0,0)"/>
<path d="" fill="#867AC3" transform="translate(0,0)"/>
<path d="" fill="#707070" transform="translate(0,0)"/>
<path d="" fill="#777581" transform="translate(0,0)"/>
<path d="" fill="#727275" transform="translate(0,0)"/>
<path d="" fill="#8779BF" transform="translate(0,0)"/>
<path d="" fill="#6F6D6D" transform="translate(0,0)"/>
<path d="" fill="#877BC5" transform="translate(0,0)"/>
<path d="" fill="#6F7170" transform="translate(0,0)"/>
<path d="" fill="#707070" transform="translate(0,0)"/>
<path d="" fill="#6E6F6F" transform="translate(0,0)"/>
<path d="" fill="#6B6C6B" transform="translate(0,0)"/>
<path d="" fill="#727273" transform="translate(0,0)"/>
<path d="" fill="#7C788D" transform="translate(0,0)"/>
<path d="" fill="#8579BB" transform="translate(0,0)"/>
<path d="" fill="#8B7BCC" transform="translate(0,0)"/>
<path d="" fill="#717271" transform="translate(0,0)"/>
<path d="" fill="#857ABA" transform="translate(0,0)"/>
<path d="" fill="#867BC3" transform="translate(0,0)"/>
<path d="" fill="#8678CD" transform="translate(0,0)"/>
<path d="" fill="#737274" transform="translate(0,0)"/>
<path d="" fill="#867AB8" transform="translate(0,0)"/>
<path d="" fill="#717171" transform="translate(0,0)"/>
<path d="" fill="#6C6C6B" transform="translate(0,0)"/>
<path d="" fill="#837AB6" transform="translate(0,0)"/>
<path d="" fill="#877AC3" transform="translate(0,0)"/>
<path d="" fill="#707170" transform="translate(0,0)"/>
<path d="" fill="#8478CB" transform="translate(0,0)"/>
<path d="" fill="#797882" transform="translate(0,0)"/>
<path d="" fill="#857ACC" transform="translate(0,0)"/>
<path d="" fill="#867ACF" transform="translate(0,0)"/>
<path d="" fill="#717270" transform="translate(0,0)"/>
<path d="" fill="#6D6C6C" transform="translate(0,0)"/>
<path d="" fill="#6F6E6F" transform="translate(0,0)"/>
<path d="" fill="#827BB7" transform="translate(0,0)"/>
<path d="" fill="#897AD0" transform="translate(0,0)"/>
<path d="" fill="#877BC3" transform="translate(0,0)"/>
<path d="" fill="#787680" transform="translate(0,0)"/>
<path d="" fill="#70736F" transform="translate(0,0)"/>
<path d="" fill="#7D7A8E" transform="translate(0,0)"/>
<path d="" fill="#867ACF" transform="translate(0,0)"/>
<path d="" fill="#717170" transform="translate(0,0)"/>
<path d="" fill="#6F6F6F" transform="translate(0,0)"/>
<path d="" fill="#8279B6" transform="translate(0,0)"/>
<path d="" fill="#8375CD" transform="translate(0,0)"/>
<path d="" fill="#8477CB" transform="translate(0,0)"/>
<path d="" fill="#8577CB" transform="translate(0,0)"/>
<path d="" fill="#6F7171" transform="translate(0,0)"/>
<path d="" fill="#787580" transform="translate(0,0)"/>
<path d="" fill="#7F7BA0" transform="translate(0,0)"/>
<path d="" fill="#8475CA" transform="translate(0,0)"/>
<path d="" fill="#71716F" transform="translate(0,0)"/>
<path d="" fill="#7C788C" transform="translate(0,0)"/>
<path d="" fill="#8579CC" transform="translate(0,0)"/>
<path d="" fill="#8676CE" transform="translate(0,0)"/>
<path d="" fill="#717171" transform="translate(0,0)"/>
<path d="" fill="#7C7A8D" transform="translate(0,0)"/>
<path d="" fill="#727470" transform="translate(0,0)"/>
<path d="" fill="#717171" transform="translate(0,0)"/>
<path d="" fill="#8676CD" transform="translate(0,0)"/>
<path d="" fill="#8579C6" transform="translate(0,0)"/>
<path d="" fill="#70726F" transform="translate(0,0)"/>
<path d="" fill="#857AB8" transform="translate(0,0)"/>
<path d="" fill="#8479B9" transform="translate(0,0)"/>
<path d="" fill="#8374C7" transform="translate(0,0)"/>
<path d="" fill="#8979D1" transform="translate(0,0)"/>
<path d="" fill="#877AC4" transform="translate(0,0)"/>
<path d="" fill="#8375C8" transform="translate(0,0)"/>
<path d="" fill="#707270" transform="translate(0,0)"/>
<path d="" fill="#71706F" transform="translate(0,0)"/>
<path d="" fill="#817BA0" transform="translate(0,0)"/>
<path d="" fill="#8678D0" transform="translate(0,0)"/>
<path d="" fill="#75767A" transform="translate(0,0)"/>
<path d="" fill="#777680" transform="translate(0,0)"/>
<path d="" fill="#7C788D" transform="translate(0,0)"/>
<path d="" fill="#8579BA" transform="translate(0,0)"/>
<path d="" fill="#887ACF" transform="translate(0,0)"/>
<path d="" fill="#727271" transform="translate(0,0)"/>
<path d="" fill="#867BC5" transform="translate(0,0)"/>
<path d="" fill="#817BA1" transform="translate(0,0)"/>
<path d="" fill="#7B798C" transform="translate(0,0)"/>
<path d="" fill="#8679C1" transform="translate(0,0)"/>
<path d="" fill="#8378C1" transform="translate(0,0)"/>
<path d="" fill="#8879D2" transform="translate(0,0)"/>
<path d="" fill="#8679C4" transform="translate(0,0)"/>
<path d="" fill="#797883" transform="translate(0,0)"/>
<path d="" fill="#897CC9" transform="translate(0,0)"/>
<path d="" fill="#72726F" transform="translate(0,0)"/>
<path d="" fill="#8979D1" transform="translate(0,0)"/>
<path d="" fill="#877ACB" transform="translate(0,0)"/>
<path d="" fill="#8679C4" transform="translate(0,0)"/>
<path d="" fill="#707170" transform="translate(0,0)"/>
<path d="" fill="#7F7A9A" transform="translate(0,0)"/>
<path d="" fill="#707171" transform="translate(0,0)"/>
<path d="" fill="#7D7B8E" transform="translate(0,0)"/>
<path d="" fill="#6E6F6E" transform="translate(0,0)"/>
<path d="" fill="#867AC4" transform="translate(0,0)"/>
<path d="" fill="#777680" transform="translate(0,0)"/>
<path d="" fill="#70706E" transform="translate(0,0)"/>
<path d="" fill="#767478" transform="translate(0,0)"/>
<path d="" fill="#8578C4" transform="translate(0,0)"/>
<path d="" fill="#8878D1" transform="translate(0,0)"/>
<path d="" fill="#707170" transform="translate(0,0)"/>
<path d="" fill="#78767F" transform="translate(0,0)"/>
<path d="" fill="#817CA2" transform="translate(0,0)"/>
<path d="" fill="#8879D0" transform="translate(0,0)"/>
<path d="" fill="#707171" transform="translate(0,0)"/>
<path d="" fill="#6F7170" transform="translate(0,0)"/>
<path d="" fill="#8679C4" transform="translate(0,0)"/>
<path d="" fill="#7E7A8C" transform="translate(0,0)"/>
<path d="" fill="#7D798C" transform="translate(0,0)"/>
<path d="" fill="#8579CA" transform="translate(0,0)"/>
<path d="" fill="#707170" transform="translate(0,0)"/>
<path d="" fill="#767579" transform="translate(0,0)"/>
<path d="" fill="#8879D0" transform="translate(0,0)"/>
<path d="" fill="#877AC4" transform="translate(0,0)"/>
<path d="" fill="#777780" transform="translate(0,0)"/>
<path d="" fill="#7E7A8D" transform="translate(0,0)"/>
<path d="" fill="#7C798D" transform="translate(0,0)"/>
<path d="" fill="#8979CF" transform="translate(0,0)"/>
<path d="" fill="#707272" transform="translate(0,0)"/>
<path d="" fill="#7D7B8D" transform="translate(0,0)"/>
<path d="" fill="#707372" transform="translate(0,0)"/>
<path d="" fill="#6F6E6F" transform="translate(0,0)"/>
<path d="" fill="#897BC9" transform="translate(0,0)"/>
<path d="" fill="#867BC5" transform="translate(0,0)"/>
<path d="" fill="#747473" transform="translate(0,0)"/>
<path d="" fill="#787580" transform="translate(0,0)"/>
<path d="" fill="#717273" transform="translate(0,0)"/>
<path d="" fill="#7D7A8D" transform="translate(0,0)"/>
<path d="" fill="#8A79CF" transform="translate(0,0)"/>
<path d="" fill="#6E6D6F" transform="translate(0,0)"/>
<path d="" fill="#867AC4" transform="translate(0,0)"/>
<path d="" fill="#6F7071" transform="translate(0,0)"/>
<path d="" fill="#707071" transform="translate(0,0)"/>
<path d="" fill="#7D7C8E" transform="translate(0,0)"/>
<path d="" fill="#707170" transform="translate(0,0)"/>
<path d="" fill="#8677CC" transform="translate(0,0)"/>
<path d="" fill="#867AC4" transform="translate(0,0)"/>
<path d="" fill="#897AD0" transform="translate(0,0)"/>
<path d="" fill="#727273" transform="translate(0,0)"/>
<path d="" fill="#7D798E" transform="translate(0,0)"/>
<path d="" fill="#857ACB" transform="translate(0,0)"/>
<path d="" fill="#887BD1" transform="translate(0,0)"/>
<path d="" fill="#7E7B8E" transform="translate(0,0)"/>
<path d="" fill="#7C788D" transform="translate(0,0)"/>
<path d="" fill="#8A7AD2" transform="translate(0,0)"/>
<path d="" fill="#8779C4" transform="translate(0,0)"/>
<path d="" fill="#8476C9" transform="translate(0,0)"/>
<path d="" fill="#817BA4" transform="translate(0,0)"/>
<path d="" fill="#717170" transform="translate(0,0)"/>
<path d="" fill="#707170" transform="translate(0,0)"/>
<path d="" fill="#7D7B8D" transform="translate(0,0)"/>
<path d="" fill="#867AC3" transform="translate(0,0)"/>
<path d="" fill="#8678CF" transform="translate(0,0)"/>
<path d="" fill="#706E6F" transform="translate(0,0)"/>
<path d="" fill="#8879CD" transform="translate(0,0)"/>
<path d="" fill="#727373" transform="translate(0,0)"/>
<path d="" fill="#757376" transform="translate(0,0)"/>
<path d="" fill="#7D798D" transform="translate(0,0)"/>
<path d="" fill="#857AC3" transform="translate(0,0)"/>
<path d="" fill="#8479C1" transform="translate(0,0)"/>
<path d="" fill="#7D7A8D" transform="translate(0,0)"/>
<path d="" fill="#707170" transform="translate(0,0)"/>
<path d="" fill="#6F6F6F" transform="translate(0,0)"/>
<path d="" fill="#877AC4" transform="translate(0,0)"/>
<path d="" fill="#76767F" transform="translate(0,0)"/>
<path d="" fill="#7E788D" transform="translate(0,0)"/>
<path d="" fill="#807AA2" transform="translate(0,0)"/>
<path d="" fill="#817AA3" transform="translate(0,0)"/>
<path d="" fill="#717172" transform="translate(0,0)"/>
<path d="" fill="#70706F" transform="translate(0,0)"/>
<path d="" fill="#867AC3" transform="translate(0,0)"/>
<path d="" fill="#817BA1" transform="translate(0,0)"/>
<path d="" fill="#6F716F" transform="translate(0,0)"/>
<path d="" fill="#727172" transform="translate(0,0)"/>
<path d="" fill="#7D7A8C" transform="translate(0,0)"/>
<path d="" fill="#707070" transform="translate(0,0)"/>
<path d="" fill="#6F706F" transform="translate(0,0)"/>
<path d="" fill="#6F6E6D" transform="translate(0,0)"/>
<path d="" fill="#767379" transform="translate(0,0)"/>
<path d="" fill="#877AC3" transform="translate(0,0)"/>
<path d="" fill="#6F7070" transform="translate(0,0)"/>
<path d="" fill="#78757E" transform="translate(0,0)"/>
<path d="" fill="#717173" transform="translate(0,0)"/>
<path d="" fill="#8076C6" transform="translate(0,0)"/>
<path d="" fill="#707070" transform="translate(0,0)"/>
<path d="" fill="#706D6D" transform="translate(0,0)"/>
<path d="" fill="#877AC3" transform="translate(0,0)"/>
<path d="" fill="#707070" transform="translate(0,0)"/>
<path d="" fill="#807B9E" transform="translate(0,0)"/>
<path d="" fill="#8477C5" transform="translate(0,0)"/>
<path d="" fill="#8476C3" transform="translate(0,0)"/>
<path d="" fill="#8778C7" transform="translate(0,0)"/>
<path d="" fill="#6F6F6F" transform="translate(0,0)"/>
<path d="" fill="#877AC3" transform="translate(0,0)"/>
<path d="" fill="#716E6F" transform="translate(0,0)"/>
<path d="" fill="#7F7C9D" transform="translate(0,0)"/>
<path d="" fill="#8679BC" transform="translate(0,0)"/>
<path d="" fill="#8278B9" transform="translate(0,0)"/>
<path d="" fill="#877AC3" transform="translate(0,0)"/>
<path d="" fill="#706E6F" transform="translate(0,0)"/>
<path d="" fill="#76747D" transform="translate(0,0)"/>
<path d="" fill="#6A6A69" transform="translate(0,0)"/>
<path d="" fill="#6B6A6A" transform="translate(0,0)"/>
<path d="" fill="#8478B8" transform="translate(0,0)"/>
<path d="" fill="#707070" transform="translate(0,0)"/>
<path d="" fill="#8578CA" transform="translate(0,0)"/>
<path d="" fill="#817AB4" transform="translate(0,0)"/>
<path d="" fill="#8679C1" transform="translate(0,0)"/>
<path d="" fill="#7A7789" transform="translate(0,0)"/>
<path d="" fill="#7F7A99" transform="translate(0,0)"/>
<path d="" fill="#706F71" transform="translate(0,0)"/>
<path d="" fill="#8278B3" transform="translate(0,0)"/>
<path d="" fill="#717070" transform="translate(0,0)"/>
<path d="" fill="#6F706F" transform="translate(0,0)"/>
<path d="" fill="#6D6D6E" transform="translate(0,0)"/>
<path d="" fill="#8079AF" transform="translate(0,0)"/>
<path d="" fill="#8579C2" transform="translate(0,0)"/>
<path d="" fill="#6F6F70" transform="translate(0,0)"/>
<path d="" fill="#70716F" transform="translate(0,0)"/>
<path d="" fill="#727271" transform="translate(0,0)"/>
<path d="" fill="#797788" transform="translate(0,0)"/>
<path d="" fill="#8379AF" transform="translate(0,0)"/>
<path d="" fill="#8079AD" transform="translate(0,0)"/>
<path d="" fill="#867AC1" transform="translate(0,0)"/>
<path d="" fill="#6F6F6F" transform="translate(0,0)"/>
<path d="" fill="#7B7786" transform="translate(0,0)"/>
<path d="" fill="#707070" transform="translate(0,0)"/>
<path d="" fill="#6E6C6E" transform="translate(0,0)"/>
<path d="" fill="#8078A9" transform="translate(0,0)"/>
<path d="" fill="#867AC1" transform="translate(0,0)"/>
<path d="" fill="#6F6E70" transform="translate(0,0)"/>
<path d="" fill="#75747A" transform="translate(0,0)"/>
<path d="" fill="#76767E" transform="translate(0,0)"/>
<path d="" fill="#7A7786" transform="translate(0,0)"/>
<path d="" fill="#706F70" transform="translate(0,0)"/>
<path d="" fill="#8279A8" transform="translate(0,0)"/>
<path d="" fill="#787885" transform="translate(0,0)"/>
<path d="" fill="#6F706F" transform="translate(0,0)"/>
<path d="" fill="#6E6E6D" transform="translate(0,0)"/>
<path d="" fill="#7E79A6" transform="translate(0,0)"/>
<path d="" fill="#867AC0" transform="translate(0,0)"/>
<path d="" fill="#8577C5" transform="translate(0,0)"/>
<path d="" fill="#6F7170" transform="translate(0,0)"/>
<path d="" fill="#6D6C6F" transform="translate(0,0)"/>
<path d="" fill="#7D78A4" transform="translate(0,0)"/>
<path d="" fill="#867ABF" transform="translate(0,0)"/>
<path d="" fill="#6F6F70" transform="translate(0,0)"/>
<path d="" fill="#8376C4" transform="translate(0,0)"/>
<path d="" fill="#6E6E70" transform="translate(0,0)"/>
<path d="" fill="#8474C3" transform="translate(0,0)"/>
<path d="" fill="#6F7071" transform="translate(0,0)"/>
<path d="" fill="#8579BD" transform="translate(0,0)"/>
<path d="" fill="#6F6F6F" transform="translate(0,0)"/>
<path d="" fill="#6E6E6E" transform="translate(0,0)"/>
<path d="" fill="#7E78A1" transform="translate(0,0)"/>
<path d="" fill="#8679BC" transform="translate(0,0)"/>
<path d="" fill="#8276C4" transform="translate(0,0)"/>
<path d="" fill="#7F77A0" transform="translate(0,0)"/>
<path d="" fill="#8377C7" transform="translate(0,0)"/>
<path d="" fill="#8075C7" transform="translate(0,0)"/>
<path d="" fill="#6E6E70" transform="translate(0,0)"/>
<path d="" fill="#7C789E" transform="translate(0,0)"/>
<path d="" fill="#8579BE" transform="translate(0,0)"/>
<path d="" fill="#8376C1" transform="translate(0,0)"/>
<path d="" fill="#847AB9" transform="translate(0,0)"/>
<path d="" fill="#8476C5" transform="translate(0,0)"/>
<path d="" fill="#8679C8" transform="translate(0,0)"/>
<path d="" fill="#6F6F6F" transform="translate(0,0)"/>
<path d="" fill="#76757F" transform="translate(0,0)"/>
<path d="" fill="#6E6E6F" transform="translate(0,0)"/>
<path d="" fill="#75747F" transform="translate(0,0)"/>
<path d="" fill="#7C7799" transform="translate(0,0)"/>
<path d="" fill="#847AB7" transform="translate(0,0)"/>
<path d="" fill="#847DB1" transform="translate(0,0)"/>
<path d="" fill="#6E7070" transform="translate(0,0)"/>
<path d="" fill="#737178" transform="translate(0,0)"/>
<path d="" fill="#6E6F70" transform="translate(0,0)"/>
<path d="" fill="#76747E" transform="translate(0,0)"/>
<path d="" fill="#7E7899" transform="translate(0,0)"/>
<path d="" fill="#6F6F6F" transform="translate(0,0)"/>
<path d="" fill="#7A7795" transform="translate(0,0)"/>
<path d="" fill="#837BAB" transform="translate(0,0)"/>
<path d="" fill="#737177" transform="translate(0,0)"/>
<path d="" fill="#6F6F6F" transform="translate(0,0)"/>
<path d="" fill="#76757D" transform="translate(0,0)"/>
<path d="" fill="#7A7892" transform="translate(0,0)"/>
<path d="" fill="#6E6E6E" transform="translate(0,0)"/>
<path d="" fill="#6D6F6D" transform="translate(0,0)"/>
<path d="" fill="#75747C" transform="translate(0,0)"/>
<path d="" fill="#6C6C6C" transform="translate(0,0)"/>
<path d="" fill="#747379" transform="translate(0,0)"/>
<path d="" fill="#7A778F" transform="translate(0,0)"/>
<path d="" fill="#827BA2" transform="translate(0,0)"/>
<path d="" fill="#6E6E6E" transform="translate(0,0)"/>
<path d="" fill="#6C6D6D" transform="translate(0,0)"/>
<path d="" fill="#727174" transform="translate(0,0)"/>
<path d="" fill="#777683" transform="translate(0,0)"/>
<path d="" fill="#7A778E" transform="translate(0,0)"/>
<path d="" fill="#7C7792" transform="translate(0,0)"/>
<path d="" fill="#74747A" transform="translate(0,0)"/>
<path d="" fill="#6E6D6C" transform="translate(0,0)"/>
<path d="" fill="#78778C" transform="translate(0,0)"/>
<path d="" fill="#807B9D" transform="translate(0,0)"/>
<path d="" fill="#6E6E6E" transform="translate(0,0)"/>
<path d="" fill="#6E6D6E" transform="translate(0,0)"/>
<path d="" fill="#767581" transform="translate(0,0)"/>
<path d="" fill="#6C6D6C" transform="translate(0,0)"/>
<path d="" fill="#777688" transform="translate(0,0)"/>
<path d="" fill="#7F7999" transform="translate(0,0)"/>
<path d="" fill="#7F7B97" transform="translate(0,0)"/>
<path d="" fill="#6C6D6E" transform="translate(0,0)"/>
<path d="" fill="#717274" transform="translate(0,0)"/>
<path d="" fill="#6D6F6D" transform="translate(0,0)"/>
<path d="" fill="#6E6D6D" transform="translate(0,0)"/>
<path d="" fill="#727278" transform="translate(0,0)"/>
<path d="" fill="#797687" transform="translate(0,0)"/>
<path d="" fill="#6D6E6E" transform="translate(0,0)"/>
<path d="" fill="#7E7A93" transform="translate(0,0)"/>
<path d="" fill="#6D6D6D" transform="translate(0,0)"/>
<path d="" fill="#6D6D6D" transform="translate(0,0)"/>
<path d="" fill="#6D6E6D" transform="translate(0,0)"/>
<path d="" fill="#757482" transform="translate(0,0)"/>
<path d="" fill="#7D798F" transform="translate(0,0)"/>
<path d="" fill="#6D6D6D" transform="translate(0,0)"/>
<path d="" fill="#74747A" transform="translate(0,0)"/>
<path d="" fill="#6C6D6D" transform="translate(0,0)"/>
<path d="" fill="#777581" transform="translate(0,0)"/>
<path d="" fill="#7C788E" transform="translate(0,0)"/>
<path d="" fill="#6D6D6C" transform="translate(0,0)"/>
<path d="" fill="#6D6D6D" transform="translate(0,0)"/>
<path d="" fill="#6B6B6B" transform="translate(0,0)"/>
<path d="" fill="#74747F" transform="translate(0,0)"/>
<path d="" fill="#7C7A8C" transform="translate(0,0)"/>
<path d="" fill="#717174" transform="translate(0,0)"/>
<path d="" fill="#6D6E6C" transform="translate(0,0)"/>
<path d="" fill="#6C6E6D" transform="translate(0,0)"/>
<path d="" fill="#76747F" transform="translate(0,0)"/>
<path d="" fill="#6D6E6D" transform="translate(0,0)"/>
<path d="" fill="#6D6D6C" transform="translate(0,0)"/>
<path d="" fill="#73737D" transform="translate(0,0)"/>
<path d="" fill="#7B7789" transform="translate(0,0)"/>
<path d="" fill="#6C6D6E" transform="translate(0,0)"/>
<path d="" fill="#707070" transform="translate(0,0)"/>
<path d="" fill="#717277" transform="translate(0,0)"/>
<path d="" fill="#716F73" transform="translate(0,0)"/>
<path d="" fill="#72737A" transform="translate(0,0)"/>
<path d="" fill="#787685" transform="translate(0,0)"/>
<path d="" fill="#7A7786" transform="translate(0,0)"/>
<path d="" fill="#6C6D6C" transform="translate(0,0)"/>
<path d="" fill="#6E6B6B" transform="translate(0,0)"/>
<path d="" fill="#737174" transform="translate(0,0)"/>
<path d="" fill="#6C6D6D" transform="translate(0,0)"/>
<path d="" fill="#706F71" transform="translate(0,0)"/>
<path d="" fill="#74727A" transform="translate(0,0)"/>
<path d="" fill="#6D6D6D" transform="translate(0,0)"/>
<path d="" fill="#717278" transform="translate(0,0)"/>
<path d="" fill="#787682" transform="translate(0,0)"/>
<path d="" fill="#707174" transform="translate(0,0)"/>
<path d="" fill="#727073" transform="translate(0,0)"/>
<path d="" fill="#6D6B6B" transform="translate(0,0)"/>
<path d="" fill="#747278" transform="translate(0,0)"/>
<path d="" fill="#6C6C6D" transform="translate(0,0)"/>
<path d="" fill="#707177" transform="translate(0,0)"/>
<path d="" fill="#77757E" transform="translate(0,0)"/>
<path d="" fill="#6D6E6F" transform="translate(0,0)"/>
<path d="" fill="#716F70" transform="translate(0,0)"/>
<path d="" fill="#707273" transform="translate(0,0)"/>
<path d="" fill="#6C6C6C" transform="translate(0,0)"/>
<path d="" fill="#6D6D6D" transform="translate(0,0)"/>
<path d="" fill="#6F7070" transform="translate(0,0)"/>
<path d="" fill="#727076" transform="translate(0,0)"/>
<path d="" fill="#6C6B6D" transform="translate(0,0)"/>
<path d="" fill="#707174" transform="translate(0,0)"/>
<path d="" fill="#77747C" transform="translate(0,0)"/>
<path d="" fill="#6E6D6E" transform="translate(0,0)"/>
<path d="" fill="#707071" transform="translate(0,0)"/>
<path d="" fill="#6E6F6E" transform="translate(0,0)"/>
<path d="" fill="#76757D" transform="translate(0,0)"/>
<path d="" fill="#6C6D6C" transform="translate(0,0)"/>
<path d="" fill="#6B6B6C" transform="translate(0,0)"/>
<path d="" fill="#6B696A" transform="translate(0,0)"/>
<path d="" fill="#6D6C6D" transform="translate(0,0)"/>
<path d="" fill="#6F7073" transform="translate(0,0)"/>
<path d="" fill="#747278" transform="translate(0,0)"/>
<path d="" fill="#75747A" transform="translate(0,0)"/>
<path d="" fill="#6B6C6C" transform="translate(0,0)"/>
<path d="" fill="#737376" transform="translate(0,0)"/>
<path d="" fill="#6B6C6A" transform="translate(0,0)"/>
<path d="" fill="#6C6D6C" transform="translate(0,0)"/>
<path d="" fill="#6E6E6E" transform="translate(0,0)"/>
<path d="" fill="#717072" transform="translate(0,0)"/>
<path d="" fill="#6D6C6C" transform="translate(0,0)"/>
<path d="" fill="#6E7071" transform="translate(0,0)"/>
<path d="" fill="#737276" transform="translate(0,0)"/>
<path d="" fill="#707071" transform="translate(0,0)"/>
<path d="" fill="#6D6D6D" transform="translate(0,0)"/>
<path d="" fill="#6F6E71" transform="translate(0,0)"/>
<path d="" fill="#6C6B6B" transform="translate(0,0)"/>
<path d="" fill="#6B6A6C" transform="translate(0,0)"/>
<path d="" fill="#6C6E6D" transform="translate(0,0)"/>
<path d="" fill="#6D6F70" transform="translate(0,0)"/>
<path d="" fill="#737076" transform="translate(0,0)"/>
<path d="" fill="#6C696B" transform="translate(0,0)"/>
<path d="" fill="#6D6F6F" transform="translate(0,0)"/>
<path d="" fill="#6D6B6B" transform="translate(0,0)"/>
<path d="" fill="#6E6B6D" transform="translate(0,0)"/>
<path d="" fill="#6C6F70" transform="translate(0,0)"/>
<path d="" fill="#727175" transform="translate(0,0)"/>
<path d="" fill="#6E6E6E" transform="translate(0,0)"/>
<path d="" fill="#6D6E6F" transform="translate(0,0)"/>
<path d="" fill="#6E7070" transform="translate(0,0)"/>
<path d="" fill="#707072" transform="translate(0,0)"/>
<path d="" fill="#6D6E6C" transform="translate(0,0)"/>
<path d="" fill="#6C6C6C" transform="translate(0,0)"/>
<path d="" fill="#6C6C6B" transform="translate(0,0)"/>
<path d="" fill="#6C6E70" transform="translate(0,0)"/>
<path d="" fill="#6E6E71" transform="translate(0,0)"/>
<path d="" fill="#727073" transform="translate(0,0)"/>
<path d="" fill="#6D6C6D" transform="translate(0,0)"/>
<path d="" fill="#6D6E6D" transform="translate(0,0)"/>
<path d="" fill="#6B6B6B" transform="translate(0,0)"/>
<path d="" fill="#6B696A" transform="translate(0,0)"/>
<path d="" fill="#6C6E6E" transform="translate(0,0)"/>
<path d="" fill="#6A6A6A" transform="translate(0,0)"/>
<path d="" fill="#6C6C6C" transform="translate(0,0)"/>
<path d="" fill="#6B6E6D" transform="translate(0,0)"/>
<path d="" fill="#696B69" transform="translate(0,0)"/>
<path d="" fill="#6D6D6D" transform="translate(0,0)"/>
<path d="" fill="#6C6E6C" transform="translate(0,0)"/>
<path d="" fill="#6B6A6C" transform="translate(0,0)"/>
<path d="" fill="#6C6E6D" transform="translate(0,0)"/>
<path d="" fill="#6D6D6F" transform="translate(0,0)"/>
<path d="" fill="#6F6E72" transform="translate(0,0)"/>
<path d="" fill="#6A6B6B" transform="translate(0,0)"/>
<path d="" fill="#6B686A" transform="translate(0,0)"/>
<path d="" fill="#6B6A6B" transform="translate(0,0)"/>
<path d="" fill="#6C6D6D" transform="translate(0,0)"/>
<path d="" fill="#696A69" transform="translate(0,0)"/>
<path d="" fill="#6C6D6B" transform="translate(0,0)"/>
<path d="" fill="#6C6D6D" transform="translate(0,0)"/>
<path d="" fill="#706E6E" transform="translate(0,0)"/>
<path d="" fill="#6B6D6B" transform="translate(0,0)"/>
<path d="" fill="#6A6A6B" transform="translate(0,0)"/>
<path d="" fill="#696A69" transform="translate(0,0)"/>
<path d="" fill="#6B6C6D" transform="translate(0,0)"/>
<path d="" fill="#6E6E70" transform="translate(0,0)"/>
<path d="" fill="#696B6A" transform="translate(0,0)"/>
<path d="" fill="#6C6B6B" transform="translate(0,0)"/>
<path d="" fill="#6D6D6D" transform="translate(0,0)"/>
<path d="" fill="#6A696A" transform="translate(0,0)"/>
<path d="" fill="#6B6B6A" transform="translate(0,0)"/>
<path d="" fill="#6A696A" transform="translate(0,0)"/>
<path d="" fill="#6B6C6D" transform="translate(0,0)"/>
<path d="" fill="#6A6C6D" transform="translate(0,0)"/>
<path d="" fill="#6D6D6F" transform="translate(0,0)"/>
<path d="" fill="#69696B" transform="translate(0,0)"/>
<path d="" fill="#6C6C6B" transform="translate(0,0)"/>
<path d="" fill="#6B6C6B" transform="translate(0,0)"/>
<path d="" fill="#6A6A69" transform="translate(0,0)"/>
<path d="" fill="#6C6C6C" transform="translate(0,0)"/>
<path d="" fill="#6D6D6A" transform="translate(0,0)"/>
<path d="" fill="#6B6B6A" transform="translate(0,0)"/>
<path d="" fill="#6A6B6B" transform="translate(0,0)"/>
<path d="" fill="#6D6D6E" transform="translate(0,0)"/>
<path d="" fill="#6A696A" transform="translate(0,0)"/>
<path d="" fill="#6B6B69" transform="translate(0,0)"/>
<path d="" fill="#696C6B" transform="translate(0,0)"/>
<path d="" fill="#6B6B69" transform="translate(0,0)"/>
<path d="" fill="#6A6B6A" transform="translate(0,0)"/>
<path d="" fill="#6B6D6B" transform="translate(0,0)"/>
<path d="" fill="#6B6D6A" transform="translate(0,0)"/>
<path d="" fill="#696A6A" transform="translate(0,0)"/>
<path d="" fill="#696969" transform="translate(0,0)"/>
<path d="" fill="#6A6D6A" transform="translate(0,0)"/>
<path d="" fill="#6D6D6F" transform="translate(0,0)"/>
<path d="" fill="#6A6A6A" transform="translate(0,0)"/>
<path d="" fill="#6B6B6B" transform="translate(0,0)"/>
<path d="" fill="#6C6C6B" transform="translate(0,0)"/>
<path d="" fill="#6B6E6B" transform="translate(0,0)"/>
<path d="" fill="#6B6A6C" transform="translate(0,0)"/>
<path d="" fill="#6B6A6A" transform="translate(0,0)"/>
<path d="" fill="#6C6C6B" transform="translate(0,0)"/>
<path d="" fill="#696A69" transform="translate(0,0)"/>
<path d="" fill="#6B6D6A" transform="translate(0,0)"/>
<path d="" fill="#6A6B6A" transform="translate(0,0)"/>
<path d="" fill="#6A696A" transform="translate(0,0)"/>
<path d="" fill="#6A6B6B" transform="translate(0,0)"/>
<path d="" fill="#6D6D6E" transform="translate(0,0)"/>
<path d="" fill="#686967" transform="translate(0,0)"/>
<path d="" fill="#6A696A" transform="translate(0,0)"/>
<path d="" fill="#6A6A6A" transform="translate(0,0)"/>
<path d="" fill="#6B6B6A" transform="translate(0,0)"/>
<path d="" fill="#696A69" transform="translate(0,0)"/>
<path d="" fill="#6B6A6A" transform="translate(0,0)"/>
<path d="" fill="#6C6C6B" transform="translate(0,0)"/>
<path d="" fill="#6C6A6B" transform="translate(0,0)"/>
<path d="" fill="#6C6C6C" transform="translate(0,0)"/>
<path d="" fill="#696969" transform="translate(0,0)"/>
<path d="" fill="#696A6B" transform="translate(0,0)"/>
<path d="" fill="#6A6A6A" transform="translate(0,0)"/>
<path d="" fill="#676867" transform="translate(0,0)"/>
<path d="" fill="#696968" transform="translate(0,0)"/>
<path d="" fill="#696A6A" transform="translate(0,0)"/>
<path d="" fill="#696C6A" transform="translate(0,0)"/>
<path d="" fill="#6B6C6A" transform="translate(0,0)"/>
<path d="" fill="#6A6B6B" transform="translate(0,0)"/>
<path d="" fill="#6A6A6B" transform="translate(0,0)"/>
<path d="" fill="#6E6D6F" transform="translate(0,0)"/>
<path d="" fill="#6A6A6A" transform="translate(0,0)"/>
<path d="" fill="#696868" transform="translate(0,0)"/>
<path d="" fill="#6B696A" transform="translate(0,0)"/>
<path d="" fill="#6A6B69" transform="translate(0,0)"/>
<path d="" fill="#6A6B6A" transform="translate(0,0)"/>
<path d="" fill="#6E6D6A" transform="translate(0,0)"/>
<path d="" fill="#6D6C6C" transform="translate(0,0)"/>
<path d="" fill="#6D6D6C" transform="translate(0,0)"/>
<path d="" fill="#69696A" transform="translate(0,0)"/>
<path d="" fill="#6A6B69" transform="translate(0,0)"/>
<path d="" fill="#6A6B6A" transform="translate(0,0)"/>
<path d="" fill="#6C6C6B" transform="translate(0,0)"/>
<path d="" fill="#6B6B6C" transform="translate(0,0)"/>
<path d="" fill="#6F6E6B" transform="translate(0,0)"/>
<path d="" fill="#6D6E6C" transform="translate(0,0)"/>
<path d="" fill="#706D6F" transform="translate(0,0)"/>
<path d="" fill="#6B6D6D" transform="translate(0,0)"/>
<path d="" fill="#6B696B" transform="translate(0,0)"/>
<path d="" fill="#696B6B" transform="translate(0,0)"/>
<path d="" fill="#6D6C6D" transform="translate(0,0)"/>
<path d="" fill="#696A6B" transform="translate(0,0)"/>
<path d="" fill="#6A6869" transform="translate(0,0)"/>
<path d="" fill="#6B6969" transform="translate(0,0)"/>
<path d="" fill="#6A6B6B" transform="translate(0,0)"/>
<path d="" fill="#696A67" transform="translate(0,0)"/>
<path d="" fill="#696A6A" transform="translate(0,0)"/>
<path d="" fill="#6A6B6B" transform="translate(0,0)"/>
<path d="" fill="#6B6B6A" transform="translate(0,0)"/>
<path d="" fill="#6E6D6B" transform="translate(0,0)"/>
<path d="" fill="#6D6D6D" transform="translate(0,0)"/>
<path d="" fill="#6B6C6D" transform="translate(0,0)"/>
<path d="" fill="#6B6C6B" transform="translate(0,0)"/>
<path d="" fill="#6A6A6A" transform="translate(0,0)"/>
<path d="" fill="#686767" transform="translate(0,0)"/>
<path d="" fill="#6A6B69" transform="translate(0,0)"/>
<path d="" fill="#6B6B6A" transform="translate(0,0)"/>
<path d="" fill="#6D6D6E" transform="translate(0,0)"/>
<path d="" fill="#69696A" transform="translate(0,0)"/>
<path d="" fill="#696869" transform="translate(0,0)"/>
<path d="" fill="#6A696B" transform="translate(0,0)"/>
<path d="" fill="#696968" transform="translate(0,0)"/>
<path d="" fill="#6B6B6A" transform="translate(0,0)"/>
<path d="" fill="#696A6B" transform="translate(0,0)"/>
<path d="" fill="#6B6C6A" transform="translate(0,0)"/>
<path d="" fill="#6D6D6D" transform="translate(0,0)"/>
<path d="" fill="#6D6D6D" transform="translate(0,0)"/>
<path d="" fill="#6A6C6A" transform="translate(0,0)"/>
<path d="" fill="#696B6A" transform="translate(0,0)"/>
<path d="" fill="#696B6A" transform="translate(0,0)"/>
<path d="" fill="#6A6B6C" transform="translate(0,0)"/>
<path d="" fill="#6D6C6E" transform="translate(0,0)"/>
<path d="" fill="#696A6B" transform="translate(0,0)"/>
<path d="" fill="#6A686B" transform="translate(0,0)"/>
<path d="" fill="#6A6B6B" transform="translate(0,0)"/>
<path d="" fill="#6A6B6A" transform="translate(0,0)"/>
<path d="" fill="#696867" transform="translate(0,0)"/>
<path d="" fill="#6B6A6A" transform="translate(0,0)"/>
<path d="" fill="#6C6C6A" transform="translate(0,0)"/>
<path d="" fill="#6C6B6A" transform="translate(0,0)"/>
<path d="" fill="#6D6E6D" transform="translate(0,0)"/>
<path d="" fill="#6B6C6A" transform="translate(0,0)"/>
<path d="" fill="#6B6A6A" transform="translate(0,0)"/>
<path d="" fill="#696B6A" transform="translate(0,0)"/>
<path d="" fill="#6B6B6A" transform="translate(0,0)"/>
<path d="" fill="#6D6D6F" transform="translate(0,0)"/>
<path d="" fill="#6A696A" transform="translate(0,0)"/>
<path d="" fill="#6B696C" transform="translate(0,0)"/>
<path d="" fill="#6A6B6A" transform="translate(0,0)"/>
<path d="" fill="#696968" transform="translate(0,0)"/>
<path d="" fill="#6A6969" transform="translate(0,0)"/>
<path d="" fill="#6B6A6A" transform="translate(0,0)"/>
<path d="" fill="#6B6B6A" transform="translate(0,0)"/>
<path d="" fill="#6E6D6C" transform="translate(0,0)"/>
<path d="" fill="#6B6C6D" transform="translate(0,0)"/>
<path d="" fill="#6B6A6C" transform="translate(0,0)"/>
<path d="" fill="#69696A" transform="translate(0,0)"/>
<path d="" fill="#696C6B" transform="translate(0,0)"/>
<path d="" fill="#6A6A6C" transform="translate(0,0)"/>
<path d="" fill="#6D6D6E" transform="translate(0,0)"/>
<path d="" fill="#6A6A6C" transform="translate(0,0)"/>
<path d="" fill="#6B696A" transform="translate(0,0)"/>
<path d="" fill="#6A6B6A" transform="translate(0,0)"/>
<path d="" fill="#6A6A6A" transform="translate(0,0)"/>
<path d="" fill="#696968" transform="translate(0,0)"/>
<path d="" fill="#696A68" transform="translate(0,0)"/>
<path d="" fill="#6B6A6A" transform="translate(0,0)"/>
<path d="" fill="#6C6C6C" transform="translate(0,0)"/>
<path d="" fill="#6D6B6B" transform="translate(0,0)"/>
<path d="" fill="#6F6C6C" transform="translate(0,0)"/>
<path d="" fill="#6D6C6E" transform="translate(0,0)"/>
<path d="" fill="#6E6C6D" transform="translate(0,0)"/>
<path d="" fill="#6B6D6C" transform="translate(0,0)"/>
<path d="" fill="#6A6C6B" transform="translate(0,0)"/>
<path d="" fill="#6A696A" transform="translate(0,0)"/>
<path d="" fill="#6B6C6E" transform="translate(0,0)"/>
</svg>
